<svg width="305" height="764" viewBox="0 0 305 764" fill="none" xmlns="http://www.w3.org/2000/svg">
<path d="M0 -12H4V-8H0V-12Z" fill="#E5E7EB"/>
<path d="M20 -12H24V-8H20V-12Z" fill="#E5E7EB"/>
<path d="M40 -12H44V-8H40V-12Z" fill="#E5E7EB"/>
<path d="M60 -12H64V-8H60V-12Z" fill="#E5E7EB"/>
<path d="M80 -12H84V-8H80V-12Z" fill="#E5E7EB"/>
<path d="M100 -12H104V-8H100V-12Z" fill="#E5E7EB"/>
<path d="M120 -12H124V-8H120V-12Z" fill="#E5E7EB"/>
<path d="M140 -12H144V-8H140V-12Z" fill="#E5E7EB"/>
<path d="M160 -12H164V-8H160V-12Z" fill="#E5E7EB"/>
<path d="M180 -12H184V-8H180V-12Z" fill="#E5E7EB"/>
<path d="M200 -12H204V-8H200V-12Z" fill="#E5E7EB"/>
<path d="M220 -12H224V-8H220V-12Z" fill="#E5E7EB"/>
<path d="M240 -12H244V-8H240V-12Z" fill="#E5E7EB"/>
<path d="M260 -12H264V-8H260V-12Z" fill="#E5E7EB"/>
<path d="M280 -12H284V-8H280V-12Z" fill="#E5E7EB"/>
<path d="M300 -12H304V-8H300V-12Z" fill="#E5E7EB"/>
<path d="M320 -12H324V-8H320V-12Z" fill="#E5E7EB"/>
<path d="M340 -12H344V-8H340V-12Z" fill="#E5E7EB"/>
<path d="M360 -12H364V-8H360V-12Z" fill="#E5E7EB"/>
<path d="M380 -12H384V-8H380V-12Z" fill="#E5E7EB"/>
<path d="M400 -12H404V-8H400V-12Z" fill="#E5E7EB"/>
<path d="M0 8H4V12H0V8Z" fill="#E5E7EB"/>
<path d="M20 8H24V12H20V8Z" fill="#E5E7EB"/>
<path d="M40 8H44V12H40V8Z" fill="#E5E7EB"/>
<path d="M60 8H64V12H60V8Z" fill="#E5E7EB"/>
<path d="M80 8H84V12H80V8Z" fill="#E5E7EB"/>
<path d="M100 8H104V12H100V8Z" fill="#E5E7EB"/>
<path d="M120 8H124V12H120V8Z" fill="#E5E7EB"/>
<path d="M140 8H144V12H140V8Z" fill="#E5E7EB"/>
<path d="M160 8H164V12H160V8Z" fill="#E5E7EB"/>
<path d="M180 8H184V12H180V8Z" fill="#E5E7EB"/>
<path d="M200 8H204V12H200V8Z" fill="#E5E7EB"/>
<path d="M220 8H224V12H220V8Z" fill="#E5E7EB"/>
<path d="M240 8H244V12H240V8Z" fill="#E5E7EB"/>
<path d="M260 8H264V12H260V8Z" fill="#E5E7EB"/>
<path d="M280 8H284V12H280V8Z" fill="#E5E7EB"/>
<path d="M300 8H304V12H300V8Z" fill="#E5E7EB"/>
<path d="M320 8H324V12H320V8Z" fill="#E5E7EB"/>
<path d="M340 8H344V12H340V8Z" fill="#E5E7EB"/>
<path d="M360 8H364V12H360V8Z" fill="#E5E7EB"/>
<path d="M380 8H384V12H380V8Z" fill="#E5E7EB"/>
<path d="M400 8H404V12H400V8Z" fill="#E5E7EB"/>
<path d="M0 28H4V32H0V28Z" fill="#E5E7EB"/>
<path d="M20 28H24V32H20V28Z" fill="#E5E7EB"/>
<path d="M40 28H44V32H40V28Z" fill="#E5E7EB"/>
<path d="M60 28H64V32H60V28Z" fill="#E5E7EB"/>
<path d="M80 28H84V32H80V28Z" fill="#E5E7EB"/>
<path d="M100 28H104V32H100V28Z" fill="#E5E7EB"/>
<path d="M120 28H124V32H120V28Z" fill="#E5E7EB"/>
<path d="M140 28H144V32H140V28Z" fill="#E5E7EB"/>
<path d="M160 28H164V32H160V28Z" fill="#E5E7EB"/>
<path d="M180 28H184V32H180V28Z" fill="#E5E7EB"/>
<path d="M200 28H204V32H200V28Z" fill="#E5E7EB"/>
<path d="M220 28H224V32H220V28Z" fill="#E5E7EB"/>
<path d="M240 28H244V32H240V28Z" fill="#E5E7EB"/>
<path d="M260 28H264V32H260V28Z" fill="#E5E7EB"/>
<path d="M280 28H284V32H280V28Z" fill="#E5E7EB"/>
<path d="M300 28H304V32H300V28Z" fill="#E5E7EB"/>
<path d="M320 28H324V32H320V28Z" fill="#E5E7EB"/>
<path d="M340 28H344V32H340V28Z" fill="#E5E7EB"/>
<path d="M360 28H364V32H360V28Z" fill="#E5E7EB"/>
<path d="M380 28H384V32H380V28Z" fill="#E5E7EB"/>
<path d="M400 28H404V32H400V28Z" fill="#E5E7EB"/>
<path d="M0 48H4V52H0V48Z" fill="#E5E7EB"/>
<path d="M20 48H24V52H20V48Z" fill="#E5E7EB"/>
<path d="M40 48H44V52H40V48Z" fill="#E5E7EB"/>
<path d="M60 48H64V52H60V48Z" fill="#E5E7EB"/>
<path d="M80 48H84V52H80V48Z" fill="#E5E7EB"/>
<path d="M100 48H104V52H100V48Z" fill="#E5E7EB"/>
<path d="M120 48H124V52H120V48Z" fill="#E5E7EB"/>
<path d="M140 48H144V52H140V48Z" fill="#E5E7EB"/>
<path d="M160 48H164V52H160V48Z" fill="#E5E7EB"/>
<path d="M180 48H184V52H180V48Z" fill="#E5E7EB"/>
<path d="M200 48H204V52H200V48Z" fill="#E5E7EB"/>
<path d="M220 48H224V52H220V48Z" fill="#E5E7EB"/>
<path d="M240 48H244V52H240V48Z" fill="#E5E7EB"/>
<path d="M260 48H264V52H260V48Z" fill="#E5E7EB"/>
<path d="M280 48H284V52H280V48Z" fill="#E5E7EB"/>
<path d="M300 48H304V52H300V48Z" fill="#E5E7EB"/>
<path d="M320 48H324V52H320V48Z" fill="#E5E7EB"/>
<path d="M340 48H344V52H340V48Z" fill="#E5E7EB"/>
<path d="M360 48H364V52H360V48Z" fill="#E5E7EB"/>
<path d="M380 48H384V52H380V48Z" fill="#E5E7EB"/>
<path d="M400 48H404V52H400V48Z" fill="#E5E7EB"/>
<path d="M0 68H4V72H0V68Z" fill="#E5E7EB"/>
<path d="M20 68H24V72H20V68Z" fill="#E5E7EB"/>
<path d="M40 68H44V72H40V68Z" fill="#E5E7EB"/>
<path d="M60 68H64V72H60V68Z" fill="#E5E7EB"/>
<path d="M80 68H84V72H80V68Z" fill="#E5E7EB"/>
<path d="M100 68H104V72H100V68Z" fill="#E5E7EB"/>
<path d="M120 68H124V72H120V68Z" fill="#E5E7EB"/>
<path d="M140 68H144V72H140V68Z" fill="#E5E7EB"/>
<path d="M160 68H164V72H160V68Z" fill="#E5E7EB"/>
<path d="M180 68H184V72H180V68Z" fill="#E5E7EB"/>
<path d="M200 68H204V72H200V68Z" fill="#E5E7EB"/>
<path d="M220 68H224V72H220V68Z" fill="#E5E7EB"/>
<path d="M240 68H244V72H240V68Z" fill="#E5E7EB"/>
<path d="M260 68H264V72H260V68Z" fill="#E5E7EB"/>
<path d="M280 68H284V72H280V68Z" fill="#E5E7EB"/>
<path d="M300 68H304V72H300V68Z" fill="#E5E7EB"/>
<path d="M320 68H324V72H320V68Z" fill="#E5E7EB"/>
<path d="M340 68H344V72H340V68Z" fill="#E5E7EB"/>
<path d="M360 68H364V72H360V68Z" fill="#E5E7EB"/>
<path d="M380 68H384V72H380V68Z" fill="#E5E7EB"/>
<path d="M400 68H404V72H400V68Z" fill="#E5E7EB"/>
<path d="M0 88H4V92H0V88Z" fill="#E5E7EB"/>
<path d="M20 88H24V92H20V88Z" fill="#E5E7EB"/>
<path d="M40 88H44V92H40V88Z" fill="#E5E7EB"/>
<path d="M60 88H64V92H60V88Z" fill="#E5E7EB"/>
<path d="M80 88H84V92H80V88Z" fill="#E5E7EB"/>
<path d="M100 88H104V92H100V88Z" fill="#E5E7EB"/>
<path d="M120 88H124V92H120V88Z" fill="#E5E7EB"/>
<path d="M140 88H144V92H140V88Z" fill="#E5E7EB"/>
<path d="M160 88H164V92H160V88Z" fill="#E5E7EB"/>
<path d="M180 88H184V92H180V88Z" fill="#E5E7EB"/>
<path d="M200 88H204V92H200V88Z" fill="#E5E7EB"/>
<path d="M220 88H224V92H220V88Z" fill="#E5E7EB"/>
<path d="M240 88H244V92H240V88Z" fill="#E5E7EB"/>
<path d="M260 88H264V92H260V88Z" fill="#E5E7EB"/>
<path d="M280 88H284V92H280V88Z" fill="#E5E7EB"/>
<path d="M300 88H304V92H300V88Z" fill="#E5E7EB"/>
<path d="M320 88H324V92H320V88Z" fill="#E5E7EB"/>
<path d="M340 88H344V92H340V88Z" fill="#E5E7EB"/>
<path d="M360 88H364V92H360V88Z" fill="#E5E7EB"/>
<path d="M380 88H384V92H380V88Z" fill="#E5E7EB"/>
<path d="M400 88H404V92H400V88Z" fill="#E5E7EB"/>
<path d="M0 108H4V112H0V108Z" fill="#E5E7EB"/>
<path d="M20 108H24V112H20V108Z" fill="#E5E7EB"/>
<path d="M40 108H44V112H40V108Z" fill="#E5E7EB"/>
<path d="M60 108H64V112H60V108Z" fill="#E5E7EB"/>
<path d="M80 108H84V112H80V108Z" fill="#E5E7EB"/>
<path d="M100 108H104V112H100V108Z" fill="#E5E7EB"/>
<path d="M120 108H124V112H120V108Z" fill="#E5E7EB"/>
<path d="M140 108H144V112H140V108Z" fill="#E5E7EB"/>
<path d="M160 108H164V112H160V108Z" fill="#E5E7EB"/>
<path d="M180 108H184V112H180V108Z" fill="#E5E7EB"/>
<path d="M200 108H204V112H200V108Z" fill="#E5E7EB"/>
<path d="M220 108H224V112H220V108Z" fill="#E5E7EB"/>
<path d="M240 108H244V112H240V108Z" fill="#E5E7EB"/>
<path d="M260 108H264V112H260V108Z" fill="#E5E7EB"/>
<path d="M280 108H284V112H280V108Z" fill="#E5E7EB"/>
<path d="M300 108H304V112H300V108Z" fill="#E5E7EB"/>
<path d="M320 108H324V112H320V108Z" fill="#E5E7EB"/>
<path d="M340 108H344V112H340V108Z" fill="#E5E7EB"/>
<path d="M360 108H364V112H360V108Z" fill="#E5E7EB"/>
<path d="M380 108H384V112H380V108Z" fill="#E5E7EB"/>
<path d="M400 108H404V112H400V108Z" fill="#E5E7EB"/>
<path d="M0 128H4V132H0V128Z" fill="#E5E7EB"/>
<path d="M20 128H24V132H20V128Z" fill="#E5E7EB"/>
<path d="M40 128H44V132H40V128Z" fill="#E5E7EB"/>
<path d="M60 128H64V132H60V128Z" fill="#E5E7EB"/>
<path d="M80 128H84V132H80V128Z" fill="#E5E7EB"/>
<path d="M100 128H104V132H100V128Z" fill="#E5E7EB"/>
<path d="M120 128H124V132H120V128Z" fill="#E5E7EB"/>
<path d="M140 128H144V132H140V128Z" fill="#E5E7EB"/>
<path d="M160 128H164V132H160V128Z" fill="#E5E7EB"/>
<path d="M180 128H184V132H180V128Z" fill="#E5E7EB"/>
<path d="M200 128H204V132H200V128Z" fill="#E5E7EB"/>
<path d="M220 128H224V132H220V128Z" fill="#E5E7EB"/>
<path d="M240 128H244V132H240V128Z" fill="#E5E7EB"/>
<path d="M260 128H264V132H260V128Z" fill="#E5E7EB"/>
<path d="M280 128H284V132H280V128Z" fill="#E5E7EB"/>
<path d="M300 128H304V132H300V128Z" fill="#E5E7EB"/>
<path d="M320 128H324V132H320V128Z" fill="#E5E7EB"/>
<path d="M340 128H344V132H340V128Z" fill="#E5E7EB"/>
<path d="M360 128H364V132H360V128Z" fill="#E5E7EB"/>
<path d="M380 128H384V132H380V128Z" fill="#E5E7EB"/>
<path d="M400 128H404V132H400V128Z" fill="#E5E7EB"/>
<path d="M0 148H4V152H0V148Z" fill="#E5E7EB"/>
<path d="M20 148H24V152H20V148Z" fill="#E5E7EB"/>
<path d="M40 148H44V152H40V148Z" fill="#E5E7EB"/>
<path d="M60 148H64V152H60V148Z" fill="#E5E7EB"/>
<path d="M80 148H84V152H80V148Z" fill="#E5E7EB"/>
<path d="M100 148H104V152H100V148Z" fill="#E5E7EB"/>
<path d="M120 148H124V152H120V148Z" fill="#E5E7EB"/>
<path d="M140 148H144V152H140V148Z" fill="#E5E7EB"/>
<path d="M160 148H164V152H160V148Z" fill="#E5E7EB"/>
<path d="M180 148H184V152H180V148Z" fill="#E5E7EB"/>
<path d="M200 148H204V152H200V148Z" fill="#E5E7EB"/>
<path d="M220 148H224V152H220V148Z" fill="#E5E7EB"/>
<path d="M240 148H244V152H240V148Z" fill="#E5E7EB"/>
<path d="M260 148H264V152H260V148Z" fill="#E5E7EB"/>
<path d="M280 148H284V152H280V148Z" fill="#E5E7EB"/>
<path d="M300 148H304V152H300V148Z" fill="#E5E7EB"/>
<path d="M320 148H324V152H320V148Z" fill="#E5E7EB"/>
<path d="M340 148H344V152H340V148Z" fill="#E5E7EB"/>
<path d="M360 148H364V152H360V148Z" fill="#E5E7EB"/>
<path d="M380 148H384V152H380V148Z" fill="#E5E7EB"/>
<path d="M400 148H404V152H400V148Z" fill="#E5E7EB"/>
<path d="M0 168H4V172H0V168Z" fill="#E5E7EB"/>
<path d="M20 168H24V172H20V168Z" fill="#E5E7EB"/>
<path d="M40 168H44V172H40V168Z" fill="#E5E7EB"/>
<path d="M60 168H64V172H60V168Z" fill="#E5E7EB"/>
<path d="M80 168H84V172H80V168Z" fill="#E5E7EB"/>
<path d="M100 168H104V172H100V168Z" fill="#E5E7EB"/>
<path d="M120 168H124V172H120V168Z" fill="#E5E7EB"/>
<path d="M140 168H144V172H140V168Z" fill="#E5E7EB"/>
<path d="M160 168H164V172H160V168Z" fill="#E5E7EB"/>
<path d="M180 168H184V172H180V168Z" fill="#E5E7EB"/>
<path d="M200 168H204V172H200V168Z" fill="#E5E7EB"/>
<path d="M220 168H224V172H220V168Z" fill="#E5E7EB"/>
<path d="M240 168H244V172H240V168Z" fill="#E5E7EB"/>
<path d="M260 168H264V172H260V168Z" fill="#E5E7EB"/>
<path d="M280 168H284V172H280V168Z" fill="#E5E7EB"/>
<path d="M300 168H304V172H300V168Z" fill="#E5E7EB"/>
<path d="M320 168H324V172H320V168Z" fill="#E5E7EB"/>
<path d="M340 168H344V172H340V168Z" fill="#E5E7EB"/>
<path d="M360 168H364V172H360V168Z" fill="#E5E7EB"/>
<path d="M380 168H384V172H380V168Z" fill="#E5E7EB"/>
<path d="M400 168H404V172H400V168Z" fill="#E5E7EB"/>
<path d="M0 188H4V192H0V188Z" fill="#E5E7EB"/>
<path d="M20 188H24V192H20V188Z" fill="#E5E7EB"/>
<path d="M40 188H44V192H40V188Z" fill="#E5E7EB"/>
<path d="M60 188H64V192H60V188Z" fill="#E5E7EB"/>
<path d="M80 188H84V192H80V188Z" fill="#E5E7EB"/>
<path d="M100 188H104V192H100V188Z" fill="#E5E7EB"/>
<path d="M120 188H124V192H120V188Z" fill="#E5E7EB"/>
<path d="M140 188H144V192H140V188Z" fill="#E5E7EB"/>
<path d="M160 188H164V192H160V188Z" fill="#E5E7EB"/>
<path d="M180 188H184V192H180V188Z" fill="#E5E7EB"/>
<path d="M200 188H204V192H200V188Z" fill="#E5E7EB"/>
<path d="M220 188H224V192H220V188Z" fill="#E5E7EB"/>
<path d="M240 188H244V192H240V188Z" fill="#E5E7EB"/>
<path d="M260 188H264V192H260V188Z" fill="#E5E7EB"/>
<path d="M280 188H284V192H280V188Z" fill="#E5E7EB"/>
<path d="M300 188H304V192H300V188Z" fill="#E5E7EB"/>
<path d="M320 188H324V192H320V188Z" fill="#E5E7EB"/>
<path d="M340 188H344V192H340V188Z" fill="#E5E7EB"/>
<path d="M360 188H364V192H360V188Z" fill="#E5E7EB"/>
<path d="M380 188H384V192H380V188Z" fill="#E5E7EB"/>
<path d="M400 188H404V192H400V188Z" fill="#E5E7EB"/>
<path d="M0 208H4V212H0V208Z" fill="#E5E7EB"/>
<path d="M20 208H24V212H20V208Z" fill="#E5E7EB"/>
<path d="M40 208H44V212H40V208Z" fill="#E5E7EB"/>
<path d="M60 208H64V212H60V208Z" fill="#E5E7EB"/>
<path d="M80 208H84V212H80V208Z" fill="#E5E7EB"/>
<path d="M100 208H104V212H100V208Z" fill="#E5E7EB"/>
<path d="M120 208H124V212H120V208Z" fill="#E5E7EB"/>
<path d="M140 208H144V212H140V208Z" fill="#E5E7EB"/>
<path d="M160 208H164V212H160V208Z" fill="#E5E7EB"/>
<path d="M180 208H184V212H180V208Z" fill="#E5E7EB"/>
<path d="M200 208H204V212H200V208Z" fill="#E5E7EB"/>
<path d="M220 208H224V212H220V208Z" fill="#E5E7EB"/>
<path d="M240 208H244V212H240V208Z" fill="#E5E7EB"/>
<path d="M260 208H264V212H260V208Z" fill="#E5E7EB"/>
<path d="M280 208H284V212H280V208Z" fill="#E5E7EB"/>
<path d="M300 208H304V212H300V208Z" fill="#E5E7EB"/>
<path d="M320 208H324V212H320V208Z" fill="#E5E7EB"/>
<path d="M340 208H344V212H340V208Z" fill="#E5E7EB"/>
<path d="M360 208H364V212H360V208Z" fill="#E5E7EB"/>
<path d="M380 208H384V212H380V208Z" fill="#E5E7EB"/>
<path d="M400 208H404V212H400V208Z" fill="#E5E7EB"/>
<path d="M0 228H4V232H0V228Z" fill="#E5E7EB"/>
<path d="M20 228H24V232H20V228Z" fill="#E5E7EB"/>
<path d="M40 228H44V232H40V228Z" fill="#E5E7EB"/>
<path d="M60 228H64V232H60V228Z" fill="#E5E7EB"/>
<path d="M80 228H84V232H80V228Z" fill="#E5E7EB"/>
<path d="M100 228H104V232H100V228Z" fill="#E5E7EB"/>
<path d="M120 228H124V232H120V228Z" fill="#E5E7EB"/>
<path d="M140 228H144V232H140V228Z" fill="#E5E7EB"/>
<path d="M160 228H164V232H160V228Z" fill="#E5E7EB"/>
<path d="M180 228H184V232H180V228Z" fill="#E5E7EB"/>
<path d="M200 228H204V232H200V228Z" fill="#E5E7EB"/>
<path d="M220 228H224V232H220V228Z" fill="#E5E7EB"/>
<path d="M240 228H244V232H240V228Z" fill="#E5E7EB"/>
<path d="M260 228H264V232H260V228Z" fill="#E5E7EB"/>
<path d="M280 228H284V232H280V228Z" fill="#E5E7EB"/>
<path d="M300 228H304V232H300V228Z" fill="#E5E7EB"/>
<path d="M320 228H324V232H320V228Z" fill="#E5E7EB"/>
<path d="M340 228H344V232H340V228Z" fill="#E5E7EB"/>
<path d="M360 228H364V232H360V228Z" fill="#E5E7EB"/>
<path d="M380 228H384V232H380V228Z" fill="#E5E7EB"/>
<path d="M400 228H404V232H400V228Z" fill="#E5E7EB"/>
<path d="M0 248H4V252H0V248Z" fill="#E5E7EB"/>
<path d="M20 248H24V252H20V248Z" fill="#E5E7EB"/>
<path d="M40 248H44V252H40V248Z" fill="#E5E7EB"/>
<path d="M60 248H64V252H60V248Z" fill="#E5E7EB"/>
<path d="M80 248H84V252H80V248Z" fill="#E5E7EB"/>
<path d="M100 248H104V252H100V248Z" fill="#E5E7EB"/>
<path d="M120 248H124V252H120V248Z" fill="#E5E7EB"/>
<path d="M140 248H144V252H140V248Z" fill="#E5E7EB"/>
<path d="M160 248H164V252H160V248Z" fill="#E5E7EB"/>
<path d="M180 248H184V252H180V248Z" fill="#E5E7EB"/>
<path d="M200 248H204V252H200V248Z" fill="#E5E7EB"/>
<path d="M220 248H224V252H220V248Z" fill="#E5E7EB"/>
<path d="M240 248H244V252H240V248Z" fill="#E5E7EB"/>
<path d="M260 248H264V252H260V248Z" fill="#E5E7EB"/>
<path d="M280 248H284V252H280V248Z" fill="#E5E7EB"/>
<path d="M300 248H304V252H300V248Z" fill="#E5E7EB"/>
<path d="M320 248H324V252H320V248Z" fill="#E5E7EB"/>
<path d="M340 248H344V252H340V248Z" fill="#E5E7EB"/>
<path d="M360 248H364V252H360V248Z" fill="#E5E7EB"/>
<path d="M380 248H384V252H380V248Z" fill="#E5E7EB"/>
<path d="M400 248H404V252H400V248Z" fill="#E5E7EB"/>
<path d="M0 268H4V272H0V268Z" fill="#E5E7EB"/>
<path d="M20 268H24V272H20V268Z" fill="#E5E7EB"/>
<path d="M40 268H44V272H40V268Z" fill="#E5E7EB"/>
<path d="M60 268H64V272H60V268Z" fill="#E5E7EB"/>
<path d="M80 268H84V272H80V268Z" fill="#E5E7EB"/>
<path d="M100 268H104V272H100V268Z" fill="#E5E7EB"/>
<path d="M120 268H124V272H120V268Z" fill="#E5E7EB"/>
<path d="M140 268H144V272H140V268Z" fill="#E5E7EB"/>
<path d="M160 268H164V272H160V268Z" fill="#E5E7EB"/>
<path d="M180 268H184V272H180V268Z" fill="#E5E7EB"/>
<path d="M200 268H204V272H200V268Z" fill="#E5E7EB"/>
<path d="M220 268H224V272H220V268Z" fill="#E5E7EB"/>
<path d="M240 268H244V272H240V268Z" fill="#E5E7EB"/>
<path d="M260 268H264V272H260V268Z" fill="#E5E7EB"/>
<path d="M280 268H284V272H280V268Z" fill="#E5E7EB"/>
<path d="M300 268H304V272H300V268Z" fill="#E5E7EB"/>
<path d="M320 268H324V272H320V268Z" fill="#E5E7EB"/>
<path d="M340 268H344V272H340V268Z" fill="#E5E7EB"/>
<path d="M360 268H364V272H360V268Z" fill="#E5E7EB"/>
<path d="M380 268H384V272H380V268Z" fill="#E5E7EB"/>
<path d="M400 268H404V272H400V268Z" fill="#E5E7EB"/>
<path d="M0 288H4V292H0V288Z" fill="#E5E7EB"/>
<path d="M20 288H24V292H20V288Z" fill="#E5E7EB"/>
<path d="M40 288H44V292H40V288Z" fill="#E5E7EB"/>
<path d="M60 288H64V292H60V288Z" fill="#E5E7EB"/>
<path d="M80 288H84V292H80V288Z" fill="#E5E7EB"/>
<path d="M100 288H104V292H100V288Z" fill="#E5E7EB"/>
<path d="M120 288H124V292H120V288Z" fill="#E5E7EB"/>
<path d="M140 288H144V292H140V288Z" fill="#E5E7EB"/>
<path d="M160 288H164V292H160V288Z" fill="#E5E7EB"/>
<path d="M180 288H184V292H180V288Z" fill="#E5E7EB"/>
<path d="M200 288H204V292H200V288Z" fill="#E5E7EB"/>
<path d="M220 288H224V292H220V288Z" fill="#E5E7EB"/>
<path d="M240 288H244V292H240V288Z" fill="#E5E7EB"/>
<path d="M260 288H264V292H260V288Z" fill="#E5E7EB"/>
<path d="M280 288H284V292H280V288Z" fill="#E5E7EB"/>
<path d="M300 288H304V292H300V288Z" fill="#E5E7EB"/>
<path d="M320 288H324V292H320V288Z" fill="#E5E7EB"/>
<path d="M340 288H344V292H340V288Z" fill="#E5E7EB"/>
<path d="M360 288H364V292H360V288Z" fill="#E5E7EB"/>
<path d="M380 288H384V292H380V288Z" fill="#E5E7EB"/>
<path d="M400 288H404V292H400V288Z" fill="#E5E7EB"/>
<path d="M0 308H4V312H0V308Z" fill="#E5E7EB"/>
<path d="M20 308H24V312H20V308Z" fill="#E5E7EB"/>
<path d="M40 308H44V312H40V308Z" fill="#E5E7EB"/>
<path d="M60 308H64V312H60V308Z" fill="#E5E7EB"/>
<path d="M80 308H84V312H80V308Z" fill="#E5E7EB"/>
<path d="M100 308H104V312H100V308Z" fill="#E5E7EB"/>
<path d="M120 308H124V312H120V308Z" fill="#E5E7EB"/>
<path d="M140 308H144V312H140V308Z" fill="#E5E7EB"/>
<path d="M160 308H164V312H160V308Z" fill="#E5E7EB"/>
<path d="M180 308H184V312H180V308Z" fill="#E5E7EB"/>
<path d="M200 308H204V312H200V308Z" fill="#E5E7EB"/>
<path d="M220 308H224V312H220V308Z" fill="#E5E7EB"/>
<path d="M240 308H244V312H240V308Z" fill="#E5E7EB"/>
<path d="M260 308H264V312H260V308Z" fill="#E5E7EB"/>
<path d="M280 308H284V312H280V308Z" fill="#E5E7EB"/>
<path d="M300 308H304V312H300V308Z" fill="#E5E7EB"/>
<path d="M320 308H324V312H320V308Z" fill="#E5E7EB"/>
<path d="M340 308H344V312H340V308Z" fill="#E5E7EB"/>
<path d="M360 308H364V312H360V308Z" fill="#E5E7EB"/>
<path d="M380 308H384V312H380V308Z" fill="#E5E7EB"/>
<path d="M400 308H404V312H400V308Z" fill="#E5E7EB"/>
<path d="M0 328H4V332H0V328Z" fill="#E5E7EB"/>
<path d="M20 328H24V332H20V328Z" fill="#E5E7EB"/>
<path d="M40 328H44V332H40V328Z" fill="#E5E7EB"/>
<path d="M60 328H64V332H60V328Z" fill="#E5E7EB"/>
<path d="M80 328H84V332H80V328Z" fill="#E5E7EB"/>
<path d="M100 328H104V332H100V328Z" fill="#E5E7EB"/>
<path d="M120 328H124V332H120V328Z" fill="#E5E7EB"/>
<path d="M140 328H144V332H140V328Z" fill="#E5E7EB"/>
<path d="M160 328H164V332H160V328Z" fill="#E5E7EB"/>
<path d="M180 328H184V332H180V328Z" fill="#E5E7EB"/>
<path d="M200 328H204V332H200V328Z" fill="#E5E7EB"/>
<path d="M220 328H224V332H220V328Z" fill="#E5E7EB"/>
<path d="M240 328H244V332H240V328Z" fill="#E5E7EB"/>
<path d="M260 328H264V332H260V328Z" fill="#E5E7EB"/>
<path d="M280 328H284V332H280V328Z" fill="#E5E7EB"/>
<path d="M300 328H304V332H300V328Z" fill="#E5E7EB"/>
<path d="M320 328H324V332H320V328Z" fill="#E5E7EB"/>
<path d="M340 328H344V332H340V328Z" fill="#E5E7EB"/>
<path d="M360 328H364V332H360V328Z" fill="#E5E7EB"/>
<path d="M380 328H384V332H380V328Z" fill="#E5E7EB"/>
<path d="M400 328H404V332H400V328Z" fill="#E5E7EB"/>
<path d="M0 348H4V352H0V348Z" fill="#E5E7EB"/>
<path d="M20 348H24V352H20V348Z" fill="#E5E7EB"/>
<path d="M40 348H44V352H40V348Z" fill="#E5E7EB"/>
<path d="M60 348H64V352H60V348Z" fill="#E5E7EB"/>
<path d="M80 348H84V352H80V348Z" fill="#E5E7EB"/>
<path d="M100 348H104V352H100V348Z" fill="#E5E7EB"/>
<path d="M120 348H124V352H120V348Z" fill="#E5E7EB"/>
<path d="M140 348H144V352H140V348Z" fill="#E5E7EB"/>
<path d="M160 348H164V352H160V348Z" fill="#E5E7EB"/>
<path d="M180 348H184V352H180V348Z" fill="#E5E7EB"/>
<path d="M200 348H204V352H200V348Z" fill="#E5E7EB"/>
<path d="M220 348H224V352H220V348Z" fill="#E5E7EB"/>
<path d="M240 348H244V352H240V348Z" fill="#E5E7EB"/>
<path d="M260 348H264V352H260V348Z" fill="#E5E7EB"/>
<path d="M280 348H284V352H280V348Z" fill="#E5E7EB"/>
<path d="M300 348H304V352H300V348Z" fill="#E5E7EB"/>
<path d="M320 348H324V352H320V348Z" fill="#E5E7EB"/>
<path d="M340 348H344V352H340V348Z" fill="#E5E7EB"/>
<path d="M360 348H364V352H360V348Z" fill="#E5E7EB"/>
<path d="M380 348H384V352H380V348Z" fill="#E5E7EB"/>
<path d="M400 348H404V352H400V348Z" fill="#E5E7EB"/>
<path d="M0 368H4V372H0V368Z" fill="#E5E7EB"/>
<path d="M20 368H24V372H20V368Z" fill="#E5E7EB"/>
<path d="M40 368H44V372H40V368Z" fill="#E5E7EB"/>
<path d="M60 368H64V372H60V368Z" fill="#E5E7EB"/>
<path d="M80 368H84V372H80V368Z" fill="#E5E7EB"/>
<path d="M100 368H104V372H100V368Z" fill="#E5E7EB"/>
<path d="M120 368H124V372H120V368Z" fill="#E5E7EB"/>
<path d="M140 368H144V372H140V368Z" fill="#E5E7EB"/>
<path d="M160 368H164V372H160V368Z" fill="#E5E7EB"/>
<path d="M180 368H184V372H180V368Z" fill="#E5E7EB"/>
<path d="M200 368H204V372H200V368Z" fill="#E5E7EB"/>
<path d="M220 368H224V372H220V368Z" fill="#E5E7EB"/>
<path d="M240 368H244V372H240V368Z" fill="#E5E7EB"/>
<path d="M260 368H264V372H260V368Z" fill="#E5E7EB"/>
<path d="M280 368H284V372H280V368Z" fill="#E5E7EB"/>
<path d="M300 368H304V372H300V368Z" fill="#E5E7EB"/>
<path d="M320 368H324V372H320V368Z" fill="#E5E7EB"/>
<path d="M340 368H344V372H340V368Z" fill="#E5E7EB"/>
<path d="M360 368H364V372H360V368Z" fill="#E5E7EB"/>
<path d="M380 368H384V372H380V368Z" fill="#E5E7EB"/>
<path d="M400 368H404V372H400V368Z" fill="#E5E7EB"/>
<path d="M0 388H4V392H0V388Z" fill="#E5E7EB"/>
<path d="M20 388H24V392H20V388Z" fill="#E5E7EB"/>
<path d="M40 388H44V392H40V388Z" fill="#E5E7EB"/>
<path d="M60 388H64V392H60V388Z" fill="#E5E7EB"/>
<path d="M80 388H84V392H80V388Z" fill="#E5E7EB"/>
<path d="M100 388H104V392H100V388Z" fill="#E5E7EB"/>
<path d="M120 388H124V392H120V388Z" fill="#E5E7EB"/>
<path d="M140 388H144V392H140V388Z" fill="#E5E7EB"/>
<path d="M160 388H164V392H160V388Z" fill="#E5E7EB"/>
<path d="M180 388H184V392H180V388Z" fill="#E5E7EB"/>
<path d="M200 388H204V392H200V388Z" fill="#E5E7EB"/>
<path d="M220 388H224V392H220V388Z" fill="#E5E7EB"/>
<path d="M240 388H244V392H240V388Z" fill="#E5E7EB"/>
<path d="M260 388H264V392H260V388Z" fill="#E5E7EB"/>
<path d="M280 388H284V392H280V388Z" fill="#E5E7EB"/>
<path d="M300 388H304V392H300V388Z" fill="#E5E7EB"/>
<path d="M320 388H324V392H320V388Z" fill="#E5E7EB"/>
<path d="M340 388H344V392H340V388Z" fill="#E5E7EB"/>
<path d="M360 388H364V392H360V388Z" fill="#E5E7EB"/>
<path d="M380 388H384V392H380V388Z" fill="#E5E7EB"/>
<path d="M400 388H404V392H400V388Z" fill="#E5E7EB"/>
<path d="M0 408H4V412H0V408Z" fill="#E5E7EB"/>
<path d="M20 408H24V412H20V408Z" fill="#E5E7EB"/>
<path d="M40 408H44V412H40V408Z" fill="#E5E7EB"/>
<path d="M60 408H64V412H60V408Z" fill="#E5E7EB"/>
<path d="M80 408H84V412H80V408Z" fill="#E5E7EB"/>
<path d="M100 408H104V412H100V408Z" fill="#E5E7EB"/>
<path d="M120 408H124V412H120V408Z" fill="#E5E7EB"/>
<path d="M140 408H144V412H140V408Z" fill="#E5E7EB"/>
<path d="M160 408H164V412H160V408Z" fill="#E5E7EB"/>
<path d="M180 408H184V412H180V408Z" fill="#E5E7EB"/>
<path d="M200 408H204V412H200V408Z" fill="#E5E7EB"/>
<path d="M220 408H224V412H220V408Z" fill="#E5E7EB"/>
<path d="M240 408H244V412H240V408Z" fill="#E5E7EB"/>
<path d="M260 408H264V412H260V408Z" fill="#E5E7EB"/>
<path d="M280 408H284V412H280V408Z" fill="#E5E7EB"/>
<path d="M300 408H304V412H300V408Z" fill="#E5E7EB"/>
<path d="M320 408H324V412H320V408Z" fill="#E5E7EB"/>
<path d="M340 408H344V412H340V408Z" fill="#E5E7EB"/>
<path d="M360 408H364V412H360V408Z" fill="#E5E7EB"/>
<path d="M380 408H384V412H380V408Z" fill="#E5E7EB"/>
<path d="M400 408H404V412H400V408Z" fill="#E5E7EB"/>
<path d="M0 428H4V432H0V428Z" fill="#E5E7EB"/>
<path d="M20 428H24V432H20V428Z" fill="#E5E7EB"/>
<path d="M40 428H44V432H40V428Z" fill="#E5E7EB"/>
<path d="M60 428H64V432H60V428Z" fill="#E5E7EB"/>
<path d="M80 428H84V432H80V428Z" fill="#E5E7EB"/>
<path d="M100 428H104V432H100V428Z" fill="#E5E7EB"/>
<path d="M120 428H124V432H120V428Z" fill="#E5E7EB"/>
<path d="M140 428H144V432H140V428Z" fill="#E5E7EB"/>
<path d="M160 428H164V432H160V428Z" fill="#E5E7EB"/>
<path d="M180 428H184V432H180V428Z" fill="#E5E7EB"/>
<path d="M200 428H204V432H200V428Z" fill="#E5E7EB"/>
<path d="M220 428H224V432H220V428Z" fill="#E5E7EB"/>
<path d="M240 428H244V432H240V428Z" fill="#E5E7EB"/>
<path d="M260 428H264V432H260V428Z" fill="#E5E7EB"/>
<path d="M280 428H284V432H280V428Z" fill="#E5E7EB"/>
<path d="M300 428H304V432H300V428Z" fill="#E5E7EB"/>
<path d="M320 428H324V432H320V428Z" fill="#E5E7EB"/>
<path d="M340 428H344V432H340V428Z" fill="#E5E7EB"/>
<path d="M360 428H364V432H360V428Z" fill="#E5E7EB"/>
<path d="M380 428H384V432H380V428Z" fill="#E5E7EB"/>
<path d="M400 428H404V432H400V428Z" fill="#E5E7EB"/>
<path d="M0 448H4V452H0V448Z" fill="#E5E7EB"/>
<path d="M20 448H24V452H20V448Z" fill="#E5E7EB"/>
<path d="M40 448H44V452H40V448Z" fill="#E5E7EB"/>
<path d="M60 448H64V452H60V448Z" fill="#E5E7EB"/>
<path d="M80 448H84V452H80V448Z" fill="#E5E7EB"/>
<path d="M100 448H104V452H100V448Z" fill="#E5E7EB"/>
<path d="M120 448H124V452H120V448Z" fill="#E5E7EB"/>
<path d="M140 448H144V452H140V448Z" fill="#E5E7EB"/>
<path d="M160 448H164V452H160V448Z" fill="#E5E7EB"/>
<path d="M180 448H184V452H180V448Z" fill="#E5E7EB"/>
<path d="M200 448H204V452H200V448Z" fill="#E5E7EB"/>
<path d="M220 448H224V452H220V448Z" fill="#E5E7EB"/>
<path d="M240 448H244V452H240V448Z" fill="#E5E7EB"/>
<path d="M260 448H264V452H260V448Z" fill="#E5E7EB"/>
<path d="M280 448H284V452H280V448Z" fill="#E5E7EB"/>
<path d="M300 448H304V452H300V448Z" fill="#E5E7EB"/>
<path d="M320 448H324V452H320V448Z" fill="#E5E7EB"/>
<path d="M340 448H344V452H340V448Z" fill="#E5E7EB"/>
<path d="M360 448H364V452H360V448Z" fill="#E5E7EB"/>
<path d="M380 448H384V452H380V448Z" fill="#E5E7EB"/>
<path d="M400 448H404V452H400V448Z" fill="#E5E7EB"/>
<path d="M0 468H4V472H0V468Z" fill="#E5E7EB"/>
<path d="M20 468H24V472H20V468Z" fill="#E5E7EB"/>
<path d="M40 468H44V472H40V468Z" fill="#E5E7EB"/>
<path d="M60 468H64V472H60V468Z" fill="#E5E7EB"/>
<path d="M80 468H84V472H80V468Z" fill="#E5E7EB"/>
<path d="M100 468H104V472H100V468Z" fill="#E5E7EB"/>
<path d="M120 468H124V472H120V468Z" fill="#E5E7EB"/>
<path d="M140 468H144V472H140V468Z" fill="#E5E7EB"/>
<path d="M160 468H164V472H160V468Z" fill="#E5E7EB"/>
<path d="M180 468H184V472H180V468Z" fill="#E5E7EB"/>
<path d="M200 468H204V472H200V468Z" fill="#E5E7EB"/>
<path d="M220 468H224V472H220V468Z" fill="#E5E7EB"/>
<path d="M240 468H244V472H240V468Z" fill="#E5E7EB"/>
<path d="M260 468H264V472H260V468Z" fill="#E5E7EB"/>
<path d="M280 468H284V472H280V468Z" fill="#E5E7EB"/>
<path d="M300 468H304V472H300V468Z" fill="#E5E7EB"/>
<path d="M320 468H324V472H320V468Z" fill="#E5E7EB"/>
<path d="M340 468H344V472H340V468Z" fill="#E5E7EB"/>
<path d="M360 468H364V472H360V468Z" fill="#E5E7EB"/>
<path d="M380 468H384V472H380V468Z" fill="#E5E7EB"/>
<path d="M400 468H404V472H400V468Z" fill="#E5E7EB"/>
<path d="M0 488H4V492H0V488Z" fill="#E5E7EB"/>
<path d="M20 488H24V492H20V488Z" fill="#E5E7EB"/>
<path d="M40 488H44V492H40V488Z" fill="#E5E7EB"/>
<path d="M60 488H64V492H60V488Z" fill="#E5E7EB"/>
<path d="M80 488H84V492H80V488Z" fill="#E5E7EB"/>
<path d="M100 488H104V492H100V488Z" fill="#E5E7EB"/>
<path d="M120 488H124V492H120V488Z" fill="#E5E7EB"/>
<path d="M140 488H144V492H140V488Z" fill="#E5E7EB"/>
<path d="M160 488H164V492H160V488Z" fill="#E5E7EB"/>
<path d="M180 488H184V492H180V488Z" fill="#E5E7EB"/>
<path d="M200 488H204V492H200V488Z" fill="#E5E7EB"/>
<path d="M220 488H224V492H220V488Z" fill="#E5E7EB"/>
<path d="M240 488H244V492H240V488Z" fill="#E5E7EB"/>
<path d="M260 488H264V492H260V488Z" fill="#E5E7EB"/>
<path d="M280 488H284V492H280V488Z" fill="#E5E7EB"/>
<path d="M300 488H304V492H300V488Z" fill="#E5E7EB"/>
<path d="M320 488H324V492H320V488Z" fill="#E5E7EB"/>
<path d="M340 488H344V492H340V488Z" fill="#E5E7EB"/>
<path d="M360 488H364V492H360V488Z" fill="#E5E7EB"/>
<path d="M380 488H384V492H380V488Z" fill="#E5E7EB"/>
<path d="M400 488H404V492H400V488Z" fill="#E5E7EB"/>
<path d="M0 508H4V512H0V508Z" fill="#E5E7EB"/>
<path d="M20 508H24V512H20V508Z" fill="#E5E7EB"/>
<path d="M40 508H44V512H40V508Z" fill="#E5E7EB"/>
<path d="M60 508H64V512H60V508Z" fill="#E5E7EB"/>
<path d="M80 508H84V512H80V508Z" fill="#E5E7EB"/>
<path d="M100 508H104V512H100V508Z" fill="#E5E7EB"/>
<path d="M120 508H124V512H120V508Z" fill="#E5E7EB"/>
<path d="M140 508H144V512H140V508Z" fill="#E5E7EB"/>
<path d="M160 508H164V512H160V508Z" fill="#E5E7EB"/>
<path d="M180 508H184V512H180V508Z" fill="#E5E7EB"/>
<path d="M200 508H204V512H200V508Z" fill="#E5E7EB"/>
<path d="M220 508H224V512H220V508Z" fill="#E5E7EB"/>
<path d="M240 508H244V512H240V508Z" fill="#E5E7EB"/>
<path d="M260 508H264V512H260V508Z" fill="#E5E7EB"/>
<path d="M280 508H284V512H280V508Z" fill="#E5E7EB"/>
<path d="M300 508H304V512H300V508Z" fill="#E5E7EB"/>
<path d="M320 508H324V512H320V508Z" fill="#E5E7EB"/>
<path d="M340 508H344V512H340V508Z" fill="#E5E7EB"/>
<path d="M360 508H364V512H360V508Z" fill="#E5E7EB"/>
<path d="M380 508H384V512H380V508Z" fill="#E5E7EB"/>
<path d="M400 508H404V512H400V508Z" fill="#E5E7EB"/>
<path d="M0 528H4V532H0V528Z" fill="#E5E7EB"/>
<path d="M20 528H24V532H20V528Z" fill="#E5E7EB"/>
<path d="M40 528H44V532H40V528Z" fill="#E5E7EB"/>
<path d="M60 528H64V532H60V528Z" fill="#E5E7EB"/>
<path d="M80 528H84V532H80V528Z" fill="#E5E7EB"/>
<path d="M100 528H104V532H100V528Z" fill="#E5E7EB"/>
<path d="M120 528H124V532H120V528Z" fill="#E5E7EB"/>
<path d="M140 528H144V532H140V528Z" fill="#E5E7EB"/>
<path d="M160 528H164V532H160V528Z" fill="#E5E7EB"/>
<path d="M180 528H184V532H180V528Z" fill="#E5E7EB"/>
<path d="M200 528H204V532H200V528Z" fill="#E5E7EB"/>
<path d="M220 528H224V532H220V528Z" fill="#E5E7EB"/>
<path d="M240 528H244V532H240V528Z" fill="#E5E7EB"/>
<path d="M260 528H264V532H260V528Z" fill="#E5E7EB"/>
<path d="M280 528H284V532H280V528Z" fill="#E5E7EB"/>
<path d="M300 528H304V532H300V528Z" fill="#E5E7EB"/>
<path d="M320 528H324V532H320V528Z" fill="#E5E7EB"/>
<path d="M340 528H344V532H340V528Z" fill="#E5E7EB"/>
<path d="M360 528H364V532H360V528Z" fill="#E5E7EB"/>
<path d="M380 528H384V532H380V528Z" fill="#E5E7EB"/>
<path d="M400 528H404V532H400V528Z" fill="#E5E7EB"/>
<path d="M0 548H4V552H0V548Z" fill="#E5E7EB"/>
<path d="M20 548H24V552H20V548Z" fill="#E5E7EB"/>
<path d="M40 548H44V552H40V548Z" fill="#E5E7EB"/>
<path d="M60 548H64V552H60V548Z" fill="#E5E7EB"/>
<path d="M80 548H84V552H80V548Z" fill="#E5E7EB"/>
<path d="M100 548H104V552H100V548Z" fill="#E5E7EB"/>
<path d="M120 548H124V552H120V548Z" fill="#E5E7EB"/>
<path d="M140 548H144V552H140V548Z" fill="#E5E7EB"/>
<path d="M160 548H164V552H160V548Z" fill="#E5E7EB"/>
<path d="M180 548H184V552H180V548Z" fill="#E5E7EB"/>
<path d="M200 548H204V552H200V548Z" fill="#E5E7EB"/>
<path d="M220 548H224V552H220V548Z" fill="#E5E7EB"/>
<path d="M240 548H244V552H240V548Z" fill="#E5E7EB"/>
<path d="M260 548H264V552H260V548Z" fill="#E5E7EB"/>
<path d="M280 548H284V552H280V548Z" fill="#E5E7EB"/>
<path d="M300 548H304V552H300V548Z" fill="#E5E7EB"/>
<path d="M320 548H324V552H320V548Z" fill="#E5E7EB"/>
<path d="M340 548H344V552H340V548Z" fill="#E5E7EB"/>
<path d="M360 548H364V552H360V548Z" fill="#E5E7EB"/>
<path d="M380 548H384V552H380V548Z" fill="#E5E7EB"/>
<path d="M400 548H404V552H400V548Z" fill="#E5E7EB"/>
<path d="M0 568H4V572H0V568Z" fill="#E5E7EB"/>
<path d="M20 568H24V572H20V568Z" fill="#E5E7EB"/>
<path d="M40 568H44V572H40V568Z" fill="#E5E7EB"/>
<path d="M60 568H64V572H60V568Z" fill="#E5E7EB"/>
<path d="M80 568H84V572H80V568Z" fill="#E5E7EB"/>
<path d="M100 568H104V572H100V568Z" fill="#E5E7EB"/>
<path d="M120 568H124V572H120V568Z" fill="#E5E7EB"/>
<path d="M140 568H144V572H140V568Z" fill="#E5E7EB"/>
<path d="M160 568H164V572H160V568Z" fill="#E5E7EB"/>
<path d="M180 568H184V572H180V568Z" fill="#E5E7EB"/>
<path d="M200 568H204V572H200V568Z" fill="#E5E7EB"/>
<path d="M220 568H224V572H220V568Z" fill="#E5E7EB"/>
<path d="M240 568H244V572H240V568Z" fill="#E5E7EB"/>
<path d="M260 568H264V572H260V568Z" fill="#E5E7EB"/>
<path d="M280 568H284V572H280V568Z" fill="#E5E7EB"/>
<path d="M300 568H304V572H300V568Z" fill="#E5E7EB"/>
<path d="M320 568H324V572H320V568Z" fill="#E5E7EB"/>
<path d="M340 568H344V572H340V568Z" fill="#E5E7EB"/>
<path d="M360 568H364V572H360V568Z" fill="#E5E7EB"/>
<path d="M380 568H384V572H380V568Z" fill="#E5E7EB"/>
<path d="M400 568H404V572H400V568Z" fill="#E5E7EB"/>
<path d="M0 588H4V592H0V588Z" fill="#E5E7EB"/>
<path d="M20 588H24V592H20V588Z" fill="#E5E7EB"/>
<path d="M40 588H44V592H40V588Z" fill="#E5E7EB"/>
<path d="M60 588H64V592H60V588Z" fill="#E5E7EB"/>
<path d="M80 588H84V592H80V588Z" fill="#E5E7EB"/>
<path d="M100 588H104V592H100V588Z" fill="#E5E7EB"/>
<path d="M120 588H124V592H120V588Z" fill="#E5E7EB"/>
<path d="M140 588H144V592H140V588Z" fill="#E5E7EB"/>
<path d="M160 588H164V592H160V588Z" fill="#E5E7EB"/>
<path d="M180 588H184V592H180V588Z" fill="#E5E7EB"/>
<path d="M200 588H204V592H200V588Z" fill="#E5E7EB"/>
<path d="M220 588H224V592H220V588Z" fill="#E5E7EB"/>
<path d="M240 588H244V592H240V588Z" fill="#E5E7EB"/>
<path d="M260 588H264V592H260V588Z" fill="#E5E7EB"/>
<path d="M280 588H284V592H280V588Z" fill="#E5E7EB"/>
<path d="M300 588H304V592H300V588Z" fill="#E5E7EB"/>
<path d="M320 588H324V592H320V588Z" fill="#E5E7EB"/>
<path d="M340 588H344V592H340V588Z" fill="#E5E7EB"/>
<path d="M360 588H364V592H360V588Z" fill="#E5E7EB"/>
<path d="M380 588H384V592H380V588Z" fill="#E5E7EB"/>
<path d="M400 588H404V592H400V588Z" fill="#E5E7EB"/>
<path d="M0 608H4V612H0V608Z" fill="#E5E7EB"/>
<path d="M20 608H24V612H20V608Z" fill="#E5E7EB"/>
<path d="M40 608H44V612H40V608Z" fill="#E5E7EB"/>
<path d="M60 608H64V612H60V608Z" fill="#E5E7EB"/>
<path d="M80 608H84V612H80V608Z" fill="#E5E7EB"/>
<path d="M100 608H104V612H100V608Z" fill="#E5E7EB"/>
<path d="M120 608H124V612H120V608Z" fill="#E5E7EB"/>
<path d="M140 608H144V612H140V608Z" fill="#E5E7EB"/>
<path d="M160 608H164V612H160V608Z" fill="#E5E7EB"/>
<path d="M180 608H184V612H180V608Z" fill="#E5E7EB"/>
<path d="M200 608H204V612H200V608Z" fill="#E5E7EB"/>
<path d="M220 608H224V612H220V608Z" fill="#E5E7EB"/>
<path d="M240 608H244V612H240V608Z" fill="#E5E7EB"/>
<path d="M260 608H264V612H260V608Z" fill="#E5E7EB"/>
<path d="M280 608H284V612H280V608Z" fill="#E5E7EB"/>
<path d="M300 608H304V612H300V608Z" fill="#E5E7EB"/>
<path d="M320 608H324V612H320V608Z" fill="#E5E7EB"/>
<path d="M340 608H344V612H340V608Z" fill="#E5E7EB"/>
<path d="M360 608H364V612H360V608Z" fill="#E5E7EB"/>
<path d="M380 608H384V612H380V608Z" fill="#E5E7EB"/>
<path d="M400 608H404V612H400V608Z" fill="#E5E7EB"/>
<path d="M0 628H4V632H0V628Z" fill="#E5E7EB"/>
<path d="M20 628H24V632H20V628Z" fill="#E5E7EB"/>
<path d="M40 628H44V632H40V628Z" fill="#E5E7EB"/>
<path d="M60 628H64V632H60V628Z" fill="#E5E7EB"/>
<path d="M80 628H84V632H80V628Z" fill="#E5E7EB"/>
<path d="M100 628H104V632H100V628Z" fill="#E5E7EB"/>
<path d="M120 628H124V632H120V628Z" fill="#E5E7EB"/>
<path d="M140 628H144V632H140V628Z" fill="#E5E7EB"/>
<path d="M160 628H164V632H160V628Z" fill="#E5E7EB"/>
<path d="M180 628H184V632H180V628Z" fill="#E5E7EB"/>
<path d="M200 628H204V632H200V628Z" fill="#E5E7EB"/>
<path d="M220 628H224V632H220V628Z" fill="#E5E7EB"/>
<path d="M240 628H244V632H240V628Z" fill="#E5E7EB"/>
<path d="M260 628H264V632H260V628Z" fill="#E5E7EB"/>
<path d="M280 628H284V632H280V628Z" fill="#E5E7EB"/>
<path d="M300 628H304V632H300V628Z" fill="#E5E7EB"/>
<path d="M320 628H324V632H320V628Z" fill="#E5E7EB"/>
<path d="M340 628H344V632H340V628Z" fill="#E5E7EB"/>
<path d="M360 628H364V632H360V628Z" fill="#E5E7EB"/>
<path d="M380 628H384V632H380V628Z" fill="#E5E7EB"/>
<path d="M400 628H404V632H400V628Z" fill="#E5E7EB"/>
<path d="M0 648H4V652H0V648Z" fill="#E5E7EB"/>
<path d="M20 648H24V652H20V648Z" fill="#E5E7EB"/>
<path d="M40 648H44V652H40V648Z" fill="#E5E7EB"/>
<path d="M60 648H64V652H60V648Z" fill="#E5E7EB"/>
<path d="M80 648H84V652H80V648Z" fill="#E5E7EB"/>
<path d="M100 648H104V652H100V648Z" fill="#E5E7EB"/>
<path d="M120 648H124V652H120V648Z" fill="#E5E7EB"/>
<path d="M140 648H144V652H140V648Z" fill="#E5E7EB"/>
<path d="M160 648H164V652H160V648Z" fill="#E5E7EB"/>
<path d="M180 648H184V652H180V648Z" fill="#E5E7EB"/>
<path d="M200 648H204V652H200V648Z" fill="#E5E7EB"/>
<path d="M220 648H224V652H220V648Z" fill="#E5E7EB"/>
<path d="M240 648H244V652H240V648Z" fill="#E5E7EB"/>
<path d="M260 648H264V652H260V648Z" fill="#E5E7EB"/>
<path d="M280 648H284V652H280V648Z" fill="#E5E7EB"/>
<path d="M300 648H304V652H300V648Z" fill="#E5E7EB"/>
<path d="M320 648H324V652H320V648Z" fill="#E5E7EB"/>
<path d="M340 648H344V652H340V648Z" fill="#E5E7EB"/>
<path d="M360 648H364V652H360V648Z" fill="#E5E7EB"/>
<path d="M380 648H384V652H380V648Z" fill="#E5E7EB"/>
<path d="M400 648H404V652H400V648Z" fill="#E5E7EB"/>
<path d="M0 668H4V672H0V668Z" fill="#E5E7EB"/>
<path d="M20 668H24V672H20V668Z" fill="#E5E7EB"/>
<path d="M40 668H44V672H40V668Z" fill="#E5E7EB"/>
<path d="M60 668H64V672H60V668Z" fill="#E5E7EB"/>
<path d="M80 668H84V672H80V668Z" fill="#E5E7EB"/>
<path d="M100 668H104V672H100V668Z" fill="#E5E7EB"/>
<path d="M120 668H124V672H120V668Z" fill="#E5E7EB"/>
<path d="M140 668H144V672H140V668Z" fill="#E5E7EB"/>
<path d="M160 668H164V672H160V668Z" fill="#E5E7EB"/>
<path d="M180 668H184V672H180V668Z" fill="#E5E7EB"/>
<path d="M200 668H204V672H200V668Z" fill="#E5E7EB"/>
<path d="M220 668H224V672H220V668Z" fill="#E5E7EB"/>
<path d="M240 668H244V672H240V668Z" fill="#E5E7EB"/>
<path d="M260 668H264V672H260V668Z" fill="#E5E7EB"/>
<path d="M280 668H284V672H280V668Z" fill="#E5E7EB"/>
<path d="M300 668H304V672H300V668Z" fill="#E5E7EB"/>
<path d="M320 668H324V672H320V668Z" fill="#E5E7EB"/>
<path d="M340 668H344V672H340V668Z" fill="#E5E7EB"/>
<path d="M360 668H364V672H360V668Z" fill="#E5E7EB"/>
<path d="M380 668H384V672H380V668Z" fill="#E5E7EB"/>
<path d="M400 668H404V672H400V668Z" fill="#E5E7EB"/>
<path d="M0 688H4V692H0V688Z" fill="#E5E7EB"/>
<path d="M20 688H24V692H20V688Z" fill="#E5E7EB"/>
<path d="M40 688H44V692H40V688Z" fill="#E5E7EB"/>
<path d="M60 688H64V692H60V688Z" fill="#E5E7EB"/>
<path d="M80 688H84V692H80V688Z" fill="#E5E7EB"/>
<path d="M100 688H104V692H100V688Z" fill="#E5E7EB"/>
<path d="M120 688H124V692H120V688Z" fill="#E5E7EB"/>
<path d="M140 688H144V692H140V688Z" fill="#E5E7EB"/>
<path d="M160 688H164V692H160V688Z" fill="#E5E7EB"/>
<path d="M180 688H184V692H180V688Z" fill="#E5E7EB"/>
<path d="M200 688H204V692H200V688Z" fill="#E5E7EB"/>
<path d="M220 688H224V692H220V688Z" fill="#E5E7EB"/>
<path d="M240 688H244V692H240V688Z" fill="#E5E7EB"/>
<path d="M260 688H264V692H260V688Z" fill="#E5E7EB"/>
<path d="M280 688H284V692H280V688Z" fill="#E5E7EB"/>
<path d="M300 688H304V692H300V688Z" fill="#E5E7EB"/>
<path d="M320 688H324V692H320V688Z" fill="#E5E7EB"/>
<path d="M340 688H344V692H340V688Z" fill="#E5E7EB"/>
<path d="M360 688H364V692H360V688Z" fill="#E5E7EB"/>
<path d="M380 688H384V692H380V688Z" fill="#E5E7EB"/>
<path d="M400 688H404V692H400V688Z" fill="#E5E7EB"/>
<path d="M0 708H4V712H0V708Z" fill="#E5E7EB"/>
<path d="M20 708H24V712H20V708Z" fill="#E5E7EB"/>
<path d="M40 708H44V712H40V708Z" fill="#E5E7EB"/>
<path d="M60 708H64V712H60V708Z" fill="#E5E7EB"/>
<path d="M80 708H84V712H80V708Z" fill="#E5E7EB"/>
<path d="M100 708H104V712H100V708Z" fill="#E5E7EB"/>
<path d="M120 708H124V712H120V708Z" fill="#E5E7EB"/>
<path d="M140 708H144V712H140V708Z" fill="#E5E7EB"/>
<path d="M160 708H164V712H160V708Z" fill="#E5E7EB"/>
<path d="M180 708H184V712H180V708Z" fill="#E5E7EB"/>
<path d="M200 708H204V712H200V708Z" fill="#E5E7EB"/>
<path d="M220 708H224V712H220V708Z" fill="#E5E7EB"/>
<path d="M240 708H244V712H240V708Z" fill="#E5E7EB"/>
<path d="M260 708H264V712H260V708Z" fill="#E5E7EB"/>
<path d="M280 708H284V712H280V708Z" fill="#E5E7EB"/>
<path d="M300 708H304V712H300V708Z" fill="#E5E7EB"/>
<path d="M320 708H324V712H320V708Z" fill="#E5E7EB"/>
<path d="M340 708H344V712H340V708Z" fill="#E5E7EB"/>
<path d="M360 708H364V712H360V708Z" fill="#E5E7EB"/>
<path d="M380 708H384V712H380V708Z" fill="#E5E7EB"/>
<path d="M400 708H404V712H400V708Z" fill="#E5E7EB"/>
<path d="M0 728H4V732H0V728Z" fill="#E5E7EB"/>
<path d="M20 728H24V732H20V728Z" fill="#E5E7EB"/>
<path d="M40 728H44V732H40V728Z" fill="#E5E7EB"/>
<path d="M60 728H64V732H60V728Z" fill="#E5E7EB"/>
<path d="M80 728H84V732H80V728Z" fill="#E5E7EB"/>
<path d="M100 728H104V732H100V728Z" fill="#E5E7EB"/>
<path d="M120 728H124V732H120V728Z" fill="#E5E7EB"/>
<path d="M140 728H144V732H140V728Z" fill="#E5E7EB"/>
<path d="M160 728H164V732H160V728Z" fill="#E5E7EB"/>
<path d="M180 728H184V732H180V728Z" fill="#E5E7EB"/>
<path d="M200 728H204V732H200V728Z" fill="#E5E7EB"/>
<path d="M220 728H224V732H220V728Z" fill="#E5E7EB"/>
<path d="M240 728H244V732H240V728Z" fill="#E5E7EB"/>
<path d="M260 728H264V732H260V728Z" fill="#E5E7EB"/>
<path d="M280 728H284V732H280V728Z" fill="#E5E7EB"/>
<path d="M300 728H304V732H300V728Z" fill="#E5E7EB"/>
<path d="M320 728H324V732H320V728Z" fill="#E5E7EB"/>
<path d="M340 728H344V732H340V728Z" fill="#E5E7EB"/>
<path d="M360 728H364V732H360V728Z" fill="#E5E7EB"/>
<path d="M380 728H384V732H380V728Z" fill="#E5E7EB"/>
<path d="M400 728H404V732H400V728Z" fill="#E5E7EB"/>
<path d="M0 748H4V752H0V748Z" fill="#E5E7EB"/>
<path d="M20 748H24V752H20V748Z" fill="#E5E7EB"/>
<path d="M40 748H44V752H40V748Z" fill="#E5E7EB"/>
<path d="M60 748H64V752H60V748Z" fill="#E5E7EB"/>
<path d="M80 748H84V752H80V748Z" fill="#E5E7EB"/>
<path d="M100 748H104V752H100V748Z" fill="#E5E7EB"/>
<path d="M120 748H124V752H120V748Z" fill="#E5E7EB"/>
<path d="M140 748H144V752H140V748Z" fill="#E5E7EB"/>
<path d="M160 748H164V752H160V748Z" fill="#E5E7EB"/>
<path d="M180 748H184V752H180V748Z" fill="#E5E7EB"/>
<path d="M200 748H204V752H200V748Z" fill="#E5E7EB"/>
<path d="M220 748H224V752H220V748Z" fill="#E5E7EB"/>
<path d="M240 748H244V752H240V748Z" fill="#E5E7EB"/>
<path d="M260 748H264V752H260V748Z" fill="#E5E7EB"/>
<path d="M280 748H284V752H280V748Z" fill="#E5E7EB"/>
<path d="M300 748H304V752H300V748Z" fill="#E5E7EB"/>
<path d="M320 748H324V752H320V748Z" fill="#E5E7EB"/>
<path d="M340 748H344V752H340V748Z" fill="#E5E7EB"/>
<path d="M360 748H364V752H360V748Z" fill="#E5E7EB"/>
<path d="M380 748H384V752H380V748Z" fill="#E5E7EB"/>
<path d="M400 748H404V752H400V748Z" fill="#E5E7EB"/>
<path d="M0 768H4V772H0V768Z" fill="#E5E7EB"/>
<path d="M20 768H24V772H20V768Z" fill="#E5E7EB"/>
<path d="M40 768H44V772H40V768Z" fill="#E5E7EB"/>
<path d="M60 768H64V772H60V768Z" fill="#E5E7EB"/>
<path d="M80 768H84V772H80V768Z" fill="#E5E7EB"/>
<path d="M100 768H104V772H100V768Z" fill="#E5E7EB"/>
<path d="M120 768H124V772H120V768Z" fill="#E5E7EB"/>
<path d="M140 768H144V772H140V768Z" fill="#E5E7EB"/>
<path d="M160 768H164V772H160V768Z" fill="#E5E7EB"/>
<path d="M180 768H184V772H180V768Z" fill="#E5E7EB"/>
<path d="M200 768H204V772H200V768Z" fill="#E5E7EB"/>
<path d="M220 768H224V772H220V768Z" fill="#E5E7EB"/>
<path d="M240 768H244V772H240V768Z" fill="#E5E7EB"/>
<path d="M260 768H264V772H260V768Z" fill="#E5E7EB"/>
<path d="M280 768H284V772H280V768Z" fill="#E5E7EB"/>
<path d="M300 768H304V772H300V768Z" fill="#E5E7EB"/>
<path d="M320 768H324V772H320V768Z" fill="#E5E7EB"/>
<path d="M340 768H344V772H340V768Z" fill="#E5E7EB"/>
<path d="M360 768H364V772H360V768Z" fill="#E5E7EB"/>
<path d="M380 768H384V772H380V768Z" fill="#E5E7EB"/>
<path d="M400 768H404V772H400V768Z" fill="#E5E7EB"/>
<path d="M0 788H4V792H0V788Z" fill="#E5E7EB"/>
<path d="M20 788H24V792H20V788Z" fill="#E5E7EB"/>
<path d="M40 788H44V792H40V788Z" fill="#E5E7EB"/>
<path d="M60 788H64V792H60V788Z" fill="#E5E7EB"/>
<path d="M80 788H84V792H80V788Z" fill="#E5E7EB"/>
<path d="M100 788H104V792H100V788Z" fill="#E5E7EB"/>
<path d="M120 788H124V792H120V788Z" fill="#E5E7EB"/>
<path d="M140 788H144V792H140V788Z" fill="#E5E7EB"/>
<path d="M160 788H164V792H160V788Z" fill="#E5E7EB"/>
<path d="M180 788H184V792H180V788Z" fill="#E5E7EB"/>
<path d="M200 788H204V792H200V788Z" fill="#E5E7EB"/>
<path d="M220 788H224V792H220V788Z" fill="#E5E7EB"/>
<path d="M240 788H244V792H240V788Z" fill="#E5E7EB"/>
<path d="M260 788H264V792H260V788Z" fill="#E5E7EB"/>
<path d="M280 788H284V792H280V788Z" fill="#E5E7EB"/>
<path d="M300 788H304V792H300V788Z" fill="#E5E7EB"/>
<path d="M320 788H324V792H320V788Z" fill="#E5E7EB"/>
<path d="M340 788H344V792H340V788Z" fill="#E5E7EB"/>
<path d="M360 788H364V792H360V788Z" fill="#E5E7EB"/>
<path d="M380 788H384V792H380V788Z" fill="#E5E7EB"/>
<path d="M400 788H404V792H400V788Z" fill="#E5E7EB"/>
<path d="M0 808H4V812H0V808Z" fill="#E5E7EB"/>
<path d="M20 808H24V812H20V808Z" fill="#E5E7EB"/>
<path d="M40 808H44V812H40V808Z" fill="#E5E7EB"/>
<path d="M60 808H64V812H60V808Z" fill="#E5E7EB"/>
<path d="M80 808H84V812H80V808Z" fill="#E5E7EB"/>
<path d="M100 808H104V812H100V808Z" fill="#E5E7EB"/>
<path d="M120 808H124V812H120V808Z" fill="#E5E7EB"/>
<path d="M140 808H144V812H140V808Z" fill="#E5E7EB"/>
<path d="M160 808H164V812H160V808Z" fill="#E5E7EB"/>
<path d="M180 808H184V812H180V808Z" fill="#E5E7EB"/>
<path d="M200 808H204V812H200V808Z" fill="#E5E7EB"/>
<path d="M220 808H224V812H220V808Z" fill="#E5E7EB"/>
<path d="M240 808H244V812H240V808Z" fill="#E5E7EB"/>
<path d="M260 808H264V812H260V808Z" fill="#E5E7EB"/>
<path d="M280 808H284V812H280V808Z" fill="#E5E7EB"/>
<path d="M300 808H304V812H300V808Z" fill="#E5E7EB"/>
<path d="M320 808H324V812H320V808Z" fill="#E5E7EB"/>
<path d="M340 808H344V812H340V808Z" fill="#E5E7EB"/>
<path d="M360 808H364V812H360V808Z" fill="#E5E7EB"/>
<path d="M380 808H384V812H380V808Z" fill="#E5E7EB"/>
<path d="M400 808H404V812H400V808Z" fill="#E5E7EB"/>
</svg>
