<svg width="303" height="303" viewBox="0 0 303 303" fill="none" xmlns="http://www.w3.org/2000/svg">
<path d="M0 0H3V3H0V0Z" fill="#E5E7EB"/>
<path d="M15 0H18V3H15V0Z" fill="#E5E7EB"/>
<path d="M30 0H33V3H30V0Z" fill="#E5E7EB"/>
<path d="M45 0H48V3H45V0Z" fill="#E5E7EB"/>
<path d="M60 0H63V3H60V0Z" fill="#E5E7EB"/>
<path d="M75 0H78V3H75V0Z" fill="#E5E7EB"/>
<path d="M90 0H93V3H90V0Z" fill="#E5E7EB"/>
<path d="M105 0H108V3H105V0Z" fill="#E5E7EB"/>
<path d="M120 0H123V3H120V0Z" fill="#E5E7EB"/>
<path d="M135 0H138V3H135V0Z" fill="#E5E7EB"/>
<path d="M150 0H153V3H150V0Z" fill="#E5E7EB"/>
<path d="M165 0H168V3H165V0Z" fill="#E5E7EB"/>
<path d="M180 0H183V3H180V0Z" fill="#E5E7EB"/>
<path d="M195 0H198V3H195V0Z" fill="#E5E7EB"/>
<path d="M210 0H213V3H210V0Z" fill="#E5E7EB"/>
<path d="M225 0H228V3H225V0Z" fill="#E5E7EB"/>
<path d="M240 0H243V3H240V0Z" fill="#E5E7EB"/>
<path d="M255 0H258V3H255V0Z" fill="#E5E7EB"/>
<path d="M270 0H273V3H270V0Z" fill="#E5E7EB"/>
<path d="M285 0H288V3H285V0Z" fill="#E5E7EB"/>
<path d="M300 0H303V3H300V0Z" fill="#E5E7EB"/>
<path d="M0 15H3V18H0V15Z" fill="#E5E7EB"/>
<path d="M15 15H18V18H15V15Z" fill="#E5E7EB"/>
<path d="M30 15H33V18H30V15Z" fill="#E5E7EB"/>
<path d="M45 15H48V18H45V15Z" fill="#E5E7EB"/>
<path d="M60 15H63V18H60V15Z" fill="#E5E7EB"/>
<path d="M75 15H78V18H75V15Z" fill="#E5E7EB"/>
<path d="M90 15H93V18H90V15Z" fill="#E5E7EB"/>
<path d="M105 15H108V18H105V15Z" fill="#E5E7EB"/>
<path d="M120 15H123V18H120V15Z" fill="#E5E7EB"/>
<path d="M135 15H138V18H135V15Z" fill="#E5E7EB"/>
<path d="M150 15H153V18H150V15Z" fill="#E5E7EB"/>
<path d="M165 15H168V18H165V15Z" fill="#E5E7EB"/>
<path d="M180 15H183V18H180V15Z" fill="#E5E7EB"/>
<path d="M195 15H198V18H195V15Z" fill="#E5E7EB"/>
<path d="M210 15H213V18H210V15Z" fill="#E5E7EB"/>
<path d="M225 15H228V18H225V15Z" fill="#E5E7EB"/>
<path d="M240 15H243V18H240V15Z" fill="#E5E7EB"/>
<path d="M255 15H258V18H255V15Z" fill="#E5E7EB"/>
<path d="M270 15H273V18H270V15Z" fill="#E5E7EB"/>
<path d="M285 15H288V18H285V15Z" fill="#E5E7EB"/>
<path d="M300 15H303V18H300V15Z" fill="#E5E7EB"/>
<path d="M0 30H3V33H0V30Z" fill="#E5E7EB"/>
<path d="M15 30H18V33H15V30Z" fill="#E5E7EB"/>
<path d="M30 30H33V33H30V30Z" fill="#E5E7EB"/>
<path d="M45 30H48V33H45V30Z" fill="#E5E7EB"/>
<path d="M60 30H63V33H60V30Z" fill="#E5E7EB"/>
<path d="M75 30H78V33H75V30Z" fill="#E5E7EB"/>
<path d="M90 30H93V33H90V30Z" fill="#E5E7EB"/>
<path d="M105 30H108V33H105V30Z" fill="#E5E7EB"/>
<path d="M120 30H123V33H120V30Z" fill="#E5E7EB"/>
<path d="M135 30H138V33H135V30Z" fill="#E5E7EB"/>
<path d="M150 30H153V33H150V30Z" fill="#E5E7EB"/>
<path d="M165 30H168V33H165V30Z" fill="#E5E7EB"/>
<path d="M180 30H183V33H180V30Z" fill="#E5E7EB"/>
<path d="M195 30H198V33H195V30Z" fill="#E5E7EB"/>
<path d="M210 30H213V33H210V30Z" fill="#E5E7EB"/>
<path d="M225 30H228V33H225V30Z" fill="#E5E7EB"/>
<path d="M240 30H243V33H240V30Z" fill="#E5E7EB"/>
<path d="M255 30H258V33H255V30Z" fill="#E5E7EB"/>
<path d="M270 30H273V33H270V30Z" fill="#E5E7EB"/>
<path d="M285 30H288V33H285V30Z" fill="#E5E7EB"/>
<path d="M300 30H303V33H300V30Z" fill="#E5E7EB"/>
<path d="M0 45H3V48H0V45Z" fill="#E5E7EB"/>
<path d="M15 45H18V48H15V45Z" fill="#E5E7EB"/>
<path d="M30 45H33V48H30V45Z" fill="#E5E7EB"/>
<path d="M45 45H48V48H45V45Z" fill="#E5E7EB"/>
<path d="M60 45H63V48H60V45Z" fill="#E5E7EB"/>
<path d="M75 45H78V48H75V45Z" fill="#E5E7EB"/>
<path d="M90 45H93V48H90V45Z" fill="#E5E7EB"/>
<path d="M105 45H108V48H105V45Z" fill="#E5E7EB"/>
<path d="M120 45H123V48H120V45Z" fill="#E5E7EB"/>
<path d="M135 45H138V48H135V45Z" fill="#E5E7EB"/>
<path d="M150 45H153V48H150V45Z" fill="#E5E7EB"/>
<path d="M165 45H168V48H165V45Z" fill="#E5E7EB"/>
<path d="M180 45H183V48H180V45Z" fill="#E5E7EB"/>
<path d="M195 45H198V48H195V45Z" fill="#E5E7EB"/>
<path d="M210 45H213V48H210V45Z" fill="#E5E7EB"/>
<path d="M225 45H228V48H225V45Z" fill="#E5E7EB"/>
<path d="M240 45H243V48H240V45Z" fill="#E5E7EB"/>
<path d="M255 45H258V48H255V45Z" fill="#E5E7EB"/>
<path d="M270 45H273V48H270V45Z" fill="#E5E7EB"/>
<path d="M285 45H288V48H285V45Z" fill="#E5E7EB"/>
<path d="M300 45H303V48H300V45Z" fill="#E5E7EB"/>
<path d="M0 60H3V63H0V60Z" fill="#E5E7EB"/>
<path d="M15 60H18V63H15V60Z" fill="#E5E7EB"/>
<path d="M30 60H33V63H30V60Z" fill="#E5E7EB"/>
<path d="M45 60H48V63H45V60Z" fill="#E5E7EB"/>
<path d="M60 60H63V63H60V60Z" fill="#E5E7EB"/>
<path d="M75 60H78V63H75V60Z" fill="#E5E7EB"/>
<path d="M90 60H93V63H90V60Z" fill="#E5E7EB"/>
<path d="M105 60H108V63H105V60Z" fill="#E5E7EB"/>
<path d="M120 60H123V63H120V60Z" fill="#E5E7EB"/>
<path d="M135 60H138V63H135V60Z" fill="#E5E7EB"/>
<path d="M150 60H153V63H150V60Z" fill="#E5E7EB"/>
<path d="M165 60H168V63H165V60Z" fill="#E5E7EB"/>
<path d="M180 60H183V63H180V60Z" fill="#E5E7EB"/>
<path d="M195 60H198V63H195V60Z" fill="#E5E7EB"/>
<path d="M210 60H213V63H210V60Z" fill="#E5E7EB"/>
<path d="M225 60H228V63H225V60Z" fill="#E5E7EB"/>
<path d="M240 60H243V63H240V60Z" fill="#E5E7EB"/>
<path d="M255 60H258V63H255V60Z" fill="#E5E7EB"/>
<path d="M270 60H273V63H270V60Z" fill="#E5E7EB"/>
<path d="M285 60H288V63H285V60Z" fill="#E5E7EB"/>
<path d="M300 60H303V63H300V60Z" fill="#E5E7EB"/>
<path d="M0 75H3V78H0V75Z" fill="#E5E7EB"/>
<path d="M15 75H18V78H15V75Z" fill="#E5E7EB"/>
<path d="M30 75H33V78H30V75Z" fill="#E5E7EB"/>
<path d="M45 75H48V78H45V75Z" fill="#E5E7EB"/>
<path d="M60 75H63V78H60V75Z" fill="#E5E7EB"/>
<path d="M75 75H78V78H75V75Z" fill="#E5E7EB"/>
<path d="M90 75H93V78H90V75Z" fill="#E5E7EB"/>
<path d="M105 75H108V78H105V75Z" fill="#E5E7EB"/>
<path d="M120 75H123V78H120V75Z" fill="#E5E7EB"/>
<path d="M135 75H138V78H135V75Z" fill="#E5E7EB"/>
<path d="M150 75H153V78H150V75Z" fill="#E5E7EB"/>
<path d="M165 75H168V78H165V75Z" fill="#E5E7EB"/>
<path d="M180 75H183V78H180V75Z" fill="#E5E7EB"/>
<path d="M195 75H198V78H195V75Z" fill="#E5E7EB"/>
<path d="M210 75H213V78H210V75Z" fill="#E5E7EB"/>
<path d="M225 75H228V78H225V75Z" fill="#E5E7EB"/>
<path d="M240 75H243V78H240V75Z" fill="#E5E7EB"/>
<path d="M255 75H258V78H255V75Z" fill="#E5E7EB"/>
<path d="M270 75H273V78H270V75Z" fill="#E5E7EB"/>
<path d="M285 75H288V78H285V75Z" fill="#E5E7EB"/>
<path d="M300 75H303V78H300V75Z" fill="#E5E7EB"/>
<path d="M0 90H3V93H0V90Z" fill="#E5E7EB"/>
<path d="M15 90H18V93H15V90Z" fill="#E5E7EB"/>
<path d="M30 90H33V93H30V90Z" fill="#E5E7EB"/>
<path d="M45 90H48V93H45V90Z" fill="#E5E7EB"/>
<path d="M60 90H63V93H60V90Z" fill="#E5E7EB"/>
<path d="M75 90H78V93H75V90Z" fill="#E5E7EB"/>
<path d="M90 90H93V93H90V90Z" fill="#E5E7EB"/>
<path d="M105 90H108V93H105V90Z" fill="#E5E7EB"/>
<path d="M120 90H123V93H120V90Z" fill="#E5E7EB"/>
<path d="M135 90H138V93H135V90Z" fill="#E5E7EB"/>
<path d="M150 90H153V93H150V90Z" fill="#E5E7EB"/>
<path d="M165 90H168V93H165V90Z" fill="#E5E7EB"/>
<path d="M180 90H183V93H180V90Z" fill="#E5E7EB"/>
<path d="M195 90H198V93H195V90Z" fill="#E5E7EB"/>
<path d="M210 90H213V93H210V90Z" fill="#E5E7EB"/>
<path d="M225 90H228V93H225V90Z" fill="#E5E7EB"/>
<path d="M240 90H243V93H240V90Z" fill="#E5E7EB"/>
<path d="M255 90H258V93H255V90Z" fill="#E5E7EB"/>
<path d="M270 90H273V93H270V90Z" fill="#E5E7EB"/>
<path d="M285 90H288V93H285V90Z" fill="#E5E7EB"/>
<path d="M300 90H303V93H300V90Z" fill="#E5E7EB"/>
<path d="M0 105H3V108H0V105Z" fill="#E5E7EB"/>
<path d="M15 105H18V108H15V105Z" fill="#E5E7EB"/>
<path d="M30 105H33V108H30V105Z" fill="#E5E7EB"/>
<path d="M45 105H48V108H45V105Z" fill="#E5E7EB"/>
<path d="M60 105H63V108H60V105Z" fill="#E5E7EB"/>
<path d="M75 105H78V108H75V105Z" fill="#E5E7EB"/>
<path d="M90 105H93V108H90V105Z" fill="#E5E7EB"/>
<path d="M105 105H108V108H105V105Z" fill="#E5E7EB"/>
<path d="M120 105H123V108H120V105Z" fill="#E5E7EB"/>
<path d="M135 105H138V108H135V105Z" fill="#E5E7EB"/>
<path d="M150 105H153V108H150V105Z" fill="#E5E7EB"/>
<path d="M165 105H168V108H165V105Z" fill="#E5E7EB"/>
<path d="M180 105H183V108H180V105Z" fill="#E5E7EB"/>
<path d="M195 105H198V108H195V105Z" fill="#E5E7EB"/>
<path d="M210 105H213V108H210V105Z" fill="#E5E7EB"/>
<path d="M225 105H228V108H225V105Z" fill="#E5E7EB"/>
<path d="M240 105H243V108H240V105Z" fill="#E5E7EB"/>
<path d="M255 105H258V108H255V105Z" fill="#E5E7EB"/>
<path d="M270 105H273V108H270V105Z" fill="#E5E7EB"/>
<path d="M285 105H288V108H285V105Z" fill="#E5E7EB"/>
<path d="M300 105H303V108H300V105Z" fill="#E5E7EB"/>
<path d="M0 120H3V123H0V120Z" fill="#E5E7EB"/>
<path d="M15 120H18V123H15V120Z" fill="#E5E7EB"/>
<path d="M30 120H33V123H30V120Z" fill="#E5E7EB"/>
<path d="M45 120H48V123H45V120Z" fill="#E5E7EB"/>
<path d="M60 120H63V123H60V120Z" fill="#E5E7EB"/>
<path d="M75 120H78V123H75V120Z" fill="#E5E7EB"/>
<path d="M90 120H93V123H90V120Z" fill="#E5E7EB"/>
<path d="M105 120H108V123H105V120Z" fill="#E5E7EB"/>
<path d="M120 120H123V123H120V120Z" fill="#E5E7EB"/>
<path d="M135 120H138V123H135V120Z" fill="#E5E7EB"/>
<path d="M150 120H153V123H150V120Z" fill="#E5E7EB"/>
<path d="M165 120H168V123H165V120Z" fill="#E5E7EB"/>
<path d="M180 120H183V123H180V120Z" fill="#E5E7EB"/>
<path d="M195 120H198V123H195V120Z" fill="#E5E7EB"/>
<path d="M210 120H213V123H210V120Z" fill="#E5E7EB"/>
<path d="M225 120H228V123H225V120Z" fill="#E5E7EB"/>
<path d="M240 120H243V123H240V120Z" fill="#E5E7EB"/>
<path d="M255 120H258V123H255V120Z" fill="#E5E7EB"/>
<path d="M270 120H273V123H270V120Z" fill="#E5E7EB"/>
<path d="M285 120H288V123H285V120Z" fill="#E5E7EB"/>
<path d="M300 120H303V123H300V120Z" fill="#E5E7EB"/>
<path d="M0 135H3V138H0V135Z" fill="#E5E7EB"/>
<path d="M15 135H18V138H15V135Z" fill="#E5E7EB"/>
<path d="M30 135H33V138H30V135Z" fill="#E5E7EB"/>
<path d="M45 135H48V138H45V135Z" fill="#E5E7EB"/>
<path d="M60 135H63V138H60V135Z" fill="#E5E7EB"/>
<path d="M75 135H78V138H75V135Z" fill="#E5E7EB"/>
<path d="M90 135H93V138H90V135Z" fill="#E5E7EB"/>
<path d="M105 135H108V138H105V135Z" fill="#E5E7EB"/>
<path d="M120 135H123V138H120V135Z" fill="#E5E7EB"/>
<path d="M135 135H138V138H135V135Z" fill="#E5E7EB"/>
<path d="M150 135H153V138H150V135Z" fill="#E5E7EB"/>
<path d="M165 135H168V138H165V135Z" fill="#E5E7EB"/>
<path d="M180 135H183V138H180V135Z" fill="#E5E7EB"/>
<path d="M195 135H198V138H195V135Z" fill="#E5E7EB"/>
<path d="M210 135H213V138H210V135Z" fill="#E5E7EB"/>
<path d="M225 135H228V138H225V135Z" fill="#E5E7EB"/>
<path d="M240 135H243V138H240V135Z" fill="#E5E7EB"/>
<path d="M255 135H258V138H255V135Z" fill="#E5E7EB"/>
<path d="M270 135H273V138H270V135Z" fill="#E5E7EB"/>
<path d="M285 135H288V138H285V135Z" fill="#E5E7EB"/>
<path d="M300 135H303V138H300V135Z" fill="#E5E7EB"/>
<path d="M0 150H3V153H0V150Z" fill="#E5E7EB"/>
<path d="M15 150H18V153H15V150Z" fill="#E5E7EB"/>
<path d="M30 150H33V153H30V150Z" fill="#E5E7EB"/>
<path d="M45 150H48V153H45V150Z" fill="#E5E7EB"/>
<path d="M60 150H63V153H60V150Z" fill="#E5E7EB"/>
<path d="M75 150H78V153H75V150Z" fill="#E5E7EB"/>
<path d="M90 150H93V153H90V150Z" fill="#E5E7EB"/>
<path d="M105 150H108V153H105V150Z" fill="#E5E7EB"/>
<path d="M120 150H123V153H120V150Z" fill="#E5E7EB"/>
<path d="M135 150H138V153H135V150Z" fill="#E5E7EB"/>
<path d="M150 150H153V153H150V150Z" fill="#E5E7EB"/>
<path d="M165 150H168V153H165V150Z" fill="#E5E7EB"/>
<path d="M180 150H183V153H180V150Z" fill="#E5E7EB"/>
<path d="M195 150H198V153H195V150Z" fill="#E5E7EB"/>
<path d="M210 150H213V153H210V150Z" fill="#E5E7EB"/>
<path d="M225 150H228V153H225V150Z" fill="#E5E7EB"/>
<path d="M240 150H243V153H240V150Z" fill="#E5E7EB"/>
<path d="M255 150H258V153H255V150Z" fill="#E5E7EB"/>
<path d="M270 150H273V153H270V150Z" fill="#E5E7EB"/>
<path d="M285 150H288V153H285V150Z" fill="#E5E7EB"/>
<path d="M300 150H303V153H300V150Z" fill="#E5E7EB"/>
<path d="M0 165H3V168H0V165Z" fill="#E5E7EB"/>
<path d="M15 165H18V168H15V165Z" fill="#E5E7EB"/>
<path d="M30 165H33V168H30V165Z" fill="#E5E7EB"/>
<path d="M45 165H48V168H45V165Z" fill="#E5E7EB"/>
<path d="M60 165H63V168H60V165Z" fill="#E5E7EB"/>
<path d="M75 165H78V168H75V165Z" fill="#E5E7EB"/>
<path d="M90 165H93V168H90V165Z" fill="#E5E7EB"/>
<path d="M105 165H108V168H105V165Z" fill="#E5E7EB"/>
<path d="M120 165H123V168H120V165Z" fill="#E5E7EB"/>
<path d="M135 165H138V168H135V165Z" fill="#E5E7EB"/>
<path d="M150 165H153V168H150V165Z" fill="#E5E7EB"/>
<path d="M165 165H168V168H165V165Z" fill="#E5E7EB"/>
<path d="M180 165H183V168H180V165Z" fill="#E5E7EB"/>
<path d="M195 165H198V168H195V165Z" fill="#E5E7EB"/>
<path d="M210 165H213V168H210V165Z" fill="#E5E7EB"/>
<path d="M225 165H228V168H225V165Z" fill="#E5E7EB"/>
<path d="M240 165H243V168H240V165Z" fill="#E5E7EB"/>
<path d="M255 165H258V168H255V165Z" fill="#E5E7EB"/>
<path d="M270 165H273V168H270V165Z" fill="#E5E7EB"/>
<path d="M285 165H288V168H285V165Z" fill="#E5E7EB"/>
<path d="M300 165H303V168H300V165Z" fill="#E5E7EB"/>
<path d="M0 180H3V183H0V180Z" fill="#E5E7EB"/>
<path d="M15 180H18V183H15V180Z" fill="#E5E7EB"/>
<path d="M30 180H33V183H30V180Z" fill="#E5E7EB"/>
<path d="M45 180H48V183H45V180Z" fill="#E5E7EB"/>
<path d="M60 180H63V183H60V180Z" fill="#E5E7EB"/>
<path d="M75 180H78V183H75V180Z" fill="#E5E7EB"/>
<path d="M90 180H93V183H90V180Z" fill="#E5E7EB"/>
<path d="M105 180H108V183H105V180Z" fill="#E5E7EB"/>
<path d="M120 180H123V183H120V180Z" fill="#E5E7EB"/>
<path d="M135 180H138V183H135V180Z" fill="#E5E7EB"/>
<path d="M150 180H153V183H150V180Z" fill="#E5E7EB"/>
<path d="M165 180H168V183H165V180Z" fill="#E5E7EB"/>
<path d="M180 180H183V183H180V180Z" fill="#E5E7EB"/>
<path d="M195 180H198V183H195V180Z" fill="#E5E7EB"/>
<path d="M210 180H213V183H210V180Z" fill="#E5E7EB"/>
<path d="M225 180H228V183H225V180Z" fill="#E5E7EB"/>
<path d="M240 180H243V183H240V180Z" fill="#E5E7EB"/>
<path d="M255 180H258V183H255V180Z" fill="#E5E7EB"/>
<path d="M270 180H273V183H270V180Z" fill="#E5E7EB"/>
<path d="M285 180H288V183H285V180Z" fill="#E5E7EB"/>
<path d="M300 180H303V183H300V180Z" fill="#E5E7EB"/>
<path d="M0 195H3V198H0V195Z" fill="#E5E7EB"/>
<path d="M15 195H18V198H15V195Z" fill="#E5E7EB"/>
<path d="M30 195H33V198H30V195Z" fill="#E5E7EB"/>
<path d="M45 195H48V198H45V195Z" fill="#E5E7EB"/>
<path d="M60 195H63V198H60V195Z" fill="#E5E7EB"/>
<path d="M75 195H78V198H75V195Z" fill="#E5E7EB"/>
<path d="M90 195H93V198H90V195Z" fill="#E5E7EB"/>
<path d="M105 195H108V198H105V195Z" fill="#E5E7EB"/>
<path d="M120 195H123V198H120V195Z" fill="#E5E7EB"/>
<path d="M135 195H138V198H135V195Z" fill="#E5E7EB"/>
<path d="M150 195H153V198H150V195Z" fill="#E5E7EB"/>
<path d="M165 195H168V198H165V195Z" fill="#E5E7EB"/>
<path d="M180 195H183V198H180V195Z" fill="#E5E7EB"/>
<path d="M195 195H198V198H195V195Z" fill="#E5E7EB"/>
<path d="M210 195H213V198H210V195Z" fill="#E5E7EB"/>
<path d="M225 195H228V198H225V195Z" fill="#E5E7EB"/>
<path d="M240 195H243V198H240V195Z" fill="#E5E7EB"/>
<path d="M255 195H258V198H255V195Z" fill="#E5E7EB"/>
<path d="M270 195H273V198H270V195Z" fill="#E5E7EB"/>
<path d="M285 195H288V198H285V195Z" fill="#E5E7EB"/>
<path d="M300 195H303V198H300V195Z" fill="#E5E7EB"/>
<path d="M0 210H3V213H0V210Z" fill="#E5E7EB"/>
<path d="M15 210H18V213H15V210Z" fill="#E5E7EB"/>
<path d="M30 210H33V213H30V210Z" fill="#E5E7EB"/>
<path d="M45 210H48V213H45V210Z" fill="#E5E7EB"/>
<path d="M60 210H63V213H60V210Z" fill="#E5E7EB"/>
<path d="M75 210H78V213H75V210Z" fill="#E5E7EB"/>
<path d="M90 210H93V213H90V210Z" fill="#E5E7EB"/>
<path d="M105 210H108V213H105V210Z" fill="#E5E7EB"/>
<path d="M120 210H123V213H120V210Z" fill="#E5E7EB"/>
<path d="M135 210H138V213H135V210Z" fill="#E5E7EB"/>
<path d="M150 210H153V213H150V210Z" fill="#E5E7EB"/>
<path d="M165 210H168V213H165V210Z" fill="#E5E7EB"/>
<path d="M180 210H183V213H180V210Z" fill="#E5E7EB"/>
<path d="M195 210H198V213H195V210Z" fill="#E5E7EB"/>
<path d="M210 210H213V213H210V210Z" fill="#E5E7EB"/>
<path d="M225 210H228V213H225V210Z" fill="#E5E7EB"/>
<path d="M240 210H243V213H240V210Z" fill="#E5E7EB"/>
<path d="M255 210H258V213H255V210Z" fill="#E5E7EB"/>
<path d="M270 210H273V213H270V210Z" fill="#E5E7EB"/>
<path d="M285 210H288V213H285V210Z" fill="#E5E7EB"/>
<path d="M300 210H303V213H300V210Z" fill="#E5E7EB"/>
<path d="M0 225H3V228H0V225Z" fill="#E5E7EB"/>
<path d="M15 225H18V228H15V225Z" fill="#E5E7EB"/>
<path d="M30 225H33V228H30V225Z" fill="#E5E7EB"/>
<path d="M45 225H48V228H45V225Z" fill="#E5E7EB"/>
<path d="M60 225H63V228H60V225Z" fill="#E5E7EB"/>
<path d="M75 225H78V228H75V225Z" fill="#E5E7EB"/>
<path d="M90 225H93V228H90V225Z" fill="#E5E7EB"/>
<path d="M105 225H108V228H105V225Z" fill="#E5E7EB"/>
<path d="M120 225H123V228H120V225Z" fill="#E5E7EB"/>
<path d="M135 225H138V228H135V225Z" fill="#E5E7EB"/>
<path d="M150 225H153V228H150V225Z" fill="#E5E7EB"/>
<path d="M165 225H168V228H165V225Z" fill="#E5E7EB"/>
<path d="M180 225H183V228H180V225Z" fill="#E5E7EB"/>
<path d="M195 225H198V228H195V225Z" fill="#E5E7EB"/>
<path d="M210 225H213V228H210V225Z" fill="#E5E7EB"/>
<path d="M225 225H228V228H225V225Z" fill="#E5E7EB"/>
<path d="M240 225H243V228H240V225Z" fill="#E5E7EB"/>
<path d="M255 225H258V228H255V225Z" fill="#E5E7EB"/>
<path d="M270 225H273V228H270V225Z" fill="#E5E7EB"/>
<path d="M285 225H288V228H285V225Z" fill="#E5E7EB"/>
<path d="M300 225H303V228H300V225Z" fill="#E5E7EB"/>
<path d="M0 240H3V243H0V240Z" fill="#E5E7EB"/>
<path d="M15 240H18V243H15V240Z" fill="#E5E7EB"/>
<path d="M30 240H33V243H30V240Z" fill="#E5E7EB"/>
<path d="M45 240H48V243H45V240Z" fill="#E5E7EB"/>
<path d="M60 240H63V243H60V240Z" fill="#E5E7EB"/>
<path d="M75 240H78V243H75V240Z" fill="#E5E7EB"/>
<path d="M90 240H93V243H90V240Z" fill="#E5E7EB"/>
<path d="M105 240H108V243H105V240Z" fill="#E5E7EB"/>
<path d="M120 240H123V243H120V240Z" fill="#E5E7EB"/>
<path d="M135 240H138V243H135V240Z" fill="#E5E7EB"/>
<path d="M150 240H153V243H150V240Z" fill="#E5E7EB"/>
<path d="M165 240H168V243H165V240Z" fill="#E5E7EB"/>
<path d="M180 240H183V243H180V240Z" fill="#E5E7EB"/>
<path d="M195 240H198V243H195V240Z" fill="#E5E7EB"/>
<path d="M210 240H213V243H210V240Z" fill="#E5E7EB"/>
<path d="M225 240H228V243H225V240Z" fill="#E5E7EB"/>
<path d="M240 240H243V243H240V240Z" fill="#E5E7EB"/>
<path d="M255 240H258V243H255V240Z" fill="#E5E7EB"/>
<path d="M270 240H273V243H270V240Z" fill="#E5E7EB"/>
<path d="M285 240H288V243H285V240Z" fill="#E5E7EB"/>
<path d="M300 240H303V243H300V240Z" fill="#E5E7EB"/>
<path d="M0 255H3V258H0V255Z" fill="#E5E7EB"/>
<path d="M15 255H18V258H15V255Z" fill="#E5E7EB"/>
<path d="M30 255H33V258H30V255Z" fill="#E5E7EB"/>
<path d="M45 255H48V258H45V255Z" fill="#E5E7EB"/>
<path d="M60 255H63V258H60V255Z" fill="#E5E7EB"/>
<path d="M75 255H78V258H75V255Z" fill="#E5E7EB"/>
<path d="M90 255H93V258H90V255Z" fill="#E5E7EB"/>
<path d="M105 255H108V258H105V255Z" fill="#E5E7EB"/>
<path d="M120 255H123V258H120V255Z" fill="#E5E7EB"/>
<path d="M135 255H138V258H135V255Z" fill="#E5E7EB"/>
<path d="M150 255H153V258H150V255Z" fill="#E5E7EB"/>
<path d="M165 255H168V258H165V255Z" fill="#E5E7EB"/>
<path d="M180 255H183V258H180V255Z" fill="#E5E7EB"/>
<path d="M195 255H198V258H195V255Z" fill="#E5E7EB"/>
<path d="M210 255H213V258H210V255Z" fill="#E5E7EB"/>
<path d="M225 255H228V258H225V255Z" fill="#E5E7EB"/>
<path d="M240 255H243V258H240V255Z" fill="#E5E7EB"/>
<path d="M255 255H258V258H255V255Z" fill="#E5E7EB"/>
<path d="M270 255H273V258H270V255Z" fill="#E5E7EB"/>
<path d="M285 255H288V258H285V255Z" fill="#E5E7EB"/>
<path d="M300 255H303V258H300V255Z" fill="#E5E7EB"/>
<path d="M0 270H3V273H0V270Z" fill="#E5E7EB"/>
<path d="M15 270H18V273H15V270Z" fill="#E5E7EB"/>
<path d="M30 270H33V273H30V270Z" fill="#E5E7EB"/>
<path d="M45 270H48V273H45V270Z" fill="#E5E7EB"/>
<path d="M60 270H63V273H60V270Z" fill="#E5E7EB"/>
<path d="M75 270H78V273H75V270Z" fill="#E5E7EB"/>
<path d="M90 270H93V273H90V270Z" fill="#E5E7EB"/>
<path d="M105 270H108V273H105V270Z" fill="#E5E7EB"/>
<path d="M120 270H123V273H120V270Z" fill="#E5E7EB"/>
<path d="M135 270H138V273H135V270Z" fill="#E5E7EB"/>
<path d="M150 270H153V273H150V270Z" fill="#E5E7EB"/>
<path d="M165 270H168V273H165V270Z" fill="#E5E7EB"/>
<path d="M180 270H183V273H180V270Z" fill="#E5E7EB"/>
<path d="M195 270H198V273H195V270Z" fill="#E5E7EB"/>
<path d="M210 270H213V273H210V270Z" fill="#E5E7EB"/>
<path d="M225 270H228V273H225V270Z" fill="#E5E7EB"/>
<path d="M240 270H243V273H240V270Z" fill="#E5E7EB"/>
<path d="M255 270H258V273H255V270Z" fill="#E5E7EB"/>
<path d="M270 270H273V273H270V270Z" fill="#E5E7EB"/>
<path d="M285 270H288V273H285V270Z" fill="#E5E7EB"/>
<path d="M300 270H303V273H300V270Z" fill="#E5E7EB"/>
<path d="M0 285H3V288H0V285Z" fill="#E5E7EB"/>
<path d="M15 285H18V288H15V285Z" fill="#E5E7EB"/>
<path d="M30 285H33V288H30V285Z" fill="#E5E7EB"/>
<path d="M45 285H48V288H45V285Z" fill="#E5E7EB"/>
<path d="M60 285H63V288H60V285Z" fill="#E5E7EB"/>
<path d="M75 285H78V288H75V285Z" fill="#E5E7EB"/>
<path d="M90 285H93V288H90V285Z" fill="#E5E7EB"/>
<path d="M105 285H108V288H105V285Z" fill="#E5E7EB"/>
<path d="M120 285H123V288H120V285Z" fill="#E5E7EB"/>
<path d="M135 285H138V288H135V285Z" fill="#E5E7EB"/>
<path d="M150 285H153V288H150V285Z" fill="#E5E7EB"/>
<path d="M165 285H168V288H165V285Z" fill="#E5E7EB"/>
<path d="M180 285H183V288H180V285Z" fill="#E5E7EB"/>
<path d="M195 285H198V288H195V285Z" fill="#E5E7EB"/>
<path d="M210 285H213V288H210V285Z" fill="#E5E7EB"/>
<path d="M225 285H228V288H225V285Z" fill="#E5E7EB"/>
<path d="M240 285H243V288H240V285Z" fill="#E5E7EB"/>
<path d="M255 285H258V288H255V285Z" fill="#E5E7EB"/>
<path d="M270 285H273V288H270V285Z" fill="#E5E7EB"/>
<path d="M285 285H288V288H285V285Z" fill="#E5E7EB"/>
<path d="M300 285H303V288H300V285Z" fill="#E5E7EB"/>
<path d="M0 300H3V303H0V300Z" fill="#E5E7EB"/>
<path d="M15 300H18V303H15V300Z" fill="#E5E7EB"/>
<path d="M30 300H33V303H30V300Z" fill="#E5E7EB"/>
<path d="M45 300H48V303H45V300Z" fill="#E5E7EB"/>
<path d="M60 300H63V303H60V300Z" fill="#E5E7EB"/>
<path d="M75 300H78V303H75V300Z" fill="#E5E7EB"/>
<path d="M90 300H93V303H90V300Z" fill="#E5E7EB"/>
<path d="M105 300H108V303H105V300Z" fill="#E5E7EB"/>
<path d="M120 300H123V303H120V300Z" fill="#E5E7EB"/>
<path d="M135 300H138V303H135V300Z" fill="#E5E7EB"/>
<path d="M150 300H153V303H150V300Z" fill="#E5E7EB"/>
<path d="M165 300H168V303H165V300Z" fill="#E5E7EB"/>
<path d="M180 300H183V303H180V300Z" fill="#E5E7EB"/>
<path d="M195 300H198V303H195V300Z" fill="#E5E7EB"/>
<path d="M210 300H213V303H210V300Z" fill="#E5E7EB"/>
<path d="M225 300H228V303H225V300Z" fill="#E5E7EB"/>
<path d="M240 300H243V303H240V300Z" fill="#E5E7EB"/>
<path d="M255 300H258V303H255V300Z" fill="#E5E7EB"/>
<path d="M270 300H273V303H270V300Z" fill="#E5E7EB"/>
<path d="M285 300H288V303H285V300Z" fill="#E5E7EB"/>
<path d="M300 300H303V303H300V300Z" fill="#E5E7EB"/>
</svg>
